<svg width="100" height="120" viewBox="0 0 100 120" version="1.1" xmlns="http://www.w3.org/2000/svg" xmlns:xlink="http://www.w3.org/1999/xlink">
<title>apple-icon</title>
<desc>Created using Figma</desc>
<g id="Canvas" transform="translate(62 -190)">
<g id="apple-icon">
<use xlink:href="#path0_fill" transform="translate(-62 190)" fill="#FFFFFF"/>
</g>
</g>
<defs>
<path id="path0_fill" d="M 100 88.0378C 96.07 99.4382 84.305 119.624 72.185 119.844C 64.145 119.999 61.56 115.079 52.37 115.079C 43.185 115.079 40.31 119.694 32.71 119.994C 19.85 120.489 0 90.8579 0 65.0171C 0 41.2813 16.54 29.516 30.99 29.3009C 38.74 29.1609 46.06 34.5261 50.785 34.5261C 55.53 34.5261 64.42 28.0759 73.765 29.0209C 77.675 29.1859 88.66 30.596 95.71 40.9063C 77.005 53.1167 79.92 78.6525 100 88.0378ZM 73.89 0C 59.76 0.570018 48.23 15.3955 49.84 27.6559C 62.9 28.6709 75.43 14.0305 73.89 0Z"/>
</defs>
</svg>
