<svg width="54" height="54" viewBox="0 0 54 54" fill="none" xmlns="http://www.w3.org/2000/svg">
<path fill-rule="evenodd" clip-rule="evenodd" d="M27 54C41.9117 54 54 41.9117 54 27C54 12.0883 41.9117 0 27 0C12.0883 0 0 12.0883 0 27C0 41.9117 12.0883 54 27 54ZM23.1044 36.3172C23.7866 35.635 24.1277 34.8271 24.1277 33.8936C24.1277 32.9242 23.7866 32.1164 23.1044 31.4701C22.4581 30.7879 21.6503 30.4468 20.6809 30.4468C19.7473 30.4468 18.9395 30.7879 18.2573 31.4701C17.5751 32.1164 17.234 32.9242 17.234 33.8936C17.234 34.8271 17.5751 35.635 18.2573 36.3172C18.9395 36.9993 19.7473 37.3404 20.6809 37.3404C21.6503 37.3404 22.4581 36.9993 23.1044 36.3172ZM31.2367 28.885C32.6729 31.1828 33.4628 33.6961 33.6064 36.4249C33.6064 36.6762 33.5166 36.8916 33.3371 37.0711C33.1935 37.2507 32.996 37.3404 32.7447 37.3404H30.1596C29.9082 37.3404 29.6928 37.2507 29.5133 37.0711C29.3697 36.9275 29.2979 36.748 29.2979 36.5326C29.1543 34.5578 28.5618 32.7447 27.5206 31.0931C26.5153 29.4056 25.1689 28.0592 23.4814 27.0539C21.8298 26.0126 20.0166 25.4202 18.0419 25.2766C17.8265 25.2766 17.629 25.2048 17.4495 25.0612C17.3059 24.8816 17.234 24.6662 17.234 24.4149V21.8298C17.234 21.5785 17.3238 21.381 17.5033 21.2374C17.6828 21.0578 17.8983 20.9681 18.1496 20.9681C20.8783 21.1117 23.3916 21.9016 25.6895 23.3378C27.9874 24.738 29.8364 26.5871 31.2367 28.885ZM37.9687 24.9535C40.0871 28.4721 41.2181 32.2959 41.3617 36.4249C41.3617 36.6762 41.2719 36.8916 41.0924 37.0711C40.9488 37.2507 40.7513 37.3404 40.5 37.3404H37.9149C37.6636 37.3404 37.4481 37.2507 37.2686 37.0711C37.125 36.9275 37.0532 36.748 37.0532 36.5326C36.9096 33.1217 35.9761 29.9801 34.2527 27.1077C32.5293 24.3072 30.2673 22.0452 27.4668 20.3218C24.5944 18.5984 21.4528 17.6649 18.0419 17.5213C17.8265 17.5213 17.629 17.4495 17.4495 17.3059C17.3059 17.1263 17.234 16.9109 17.234 16.6596V14.0745C17.234 13.8231 17.3238 13.6257 17.5033 13.482C17.6828 13.3025 17.8983 13.2128 18.1496 13.2128C22.2786 13.3564 26.1203 14.5053 29.6749 16.6596C33.1217 18.7061 35.8863 21.4707 37.9687 24.9535Z" fill="white"/>
</svg>
