<svg width="81" height="69" viewBox="0 0 81 69" version="1.1" xmlns="http://www.w3.org/2000/svg" xmlns:xlink="http://www.w3.org/1999/xlink">
<title>cart-icon</title>
<desc>Created using Figma</desc>
<g id="Canvas" transform="matrix(3 0 0 3 -1086 1173)">
<g id="cart-icon">
<g id="Vector">
<use xlink:href="#path0_fill" transform="translate(362 -390.382)" fill="#24A186"/>
</g>
</g>
</g>
<defs>
<path id="path0_fill" d="M 26.7505 0L 25.9224 2.44444L 23.7723 2.44444L 19.9002 17.1111L 5.1439 17.1111L 0 3.66667L 18.7387 3.66667L 18.1101 6.11111L 3.35273 6.11111L 6.62633 14.6667L 18.2494 14.6667L 22.0748 0L 26.7505 0ZM 9.47414 18.3333C 8.55125 18.3333 7.80224 19.1547 7.80224 20.1667C 7.80224 21.1799 8.55125 22 9.47414 22C 10.397 22 11.1461 21.1799 11.1461 20.1667C 11.1461 19.1547 10.397 18.3333 9.47414 18.3333ZM 17.1649 9.77778L 15.0472 18.3333C 14.1243 18.3333 13.3753 19.1534 13.3753 20.1667C 13.3753 21.1799 14.1243 22 15.0472 22C 15.9701 22 16.7191 21.1799 16.7191 20.1667C 16.7191 19.1547 15.9701 18.3333 15.0472 18.3333L 17.1649 9.77778Z"/>
</defs>
</svg>
