<svg width="100" height="100" viewBox="0 0 100 100" version="1.1" xmlns="http://www.w3.org/2000/svg" xmlns:xlink="http://www.w3.org/1999/xlink">
<title>facebook-icon</title>
<desc>Created using Figma</desc>
<g id="Canvas" transform="translate(482 -200)">
<g id="facebook-icon">
<use xlink:href="#path0_fill" transform="translate(-482 200)" fill="#FFFFFF"/>
</g>
</g>
<defs>
<path id="path0_fill" d="M 50 0C 22.3875 0 0 22.3875 0 50C 0 77.6125 22.3875 100 50 100C 77.6125 100 100 77.6125 100 50C 100 22.3875 77.6125 0 50 0ZM 62.5 33.3333L 56.875 33.3333C 54.6333 33.3333 54.1667 34.2542 54.1667 36.575L 54.1667 41.6667L 62.5 41.6667L 61.6292 50L 54.1667 50L 54.1667 79.1667L 41.6667 79.1667L 41.6667 50L 33.3333 50L 33.3333 41.6667L 41.6667 41.6667L 41.6667 32.05C 41.6667 24.6792 45.5458 20.8333 54.2875 20.8333L 62.5 20.8333L 62.5 33.3333Z"/>
</defs>
</svg>
