<?xml version="1.0" encoding="utf-8"?>
<!-- Generator: Adobe Illustrator 24.2.0, SVG Export Plug-In . SVG Version: 6.00 Build 0)  -->
<svg version="1.1" id="Layer_1" focusable="false" xmlns="http://www.w3.org/2000/svg" xmlns:xlink="http://www.w3.org/1999/xlink"
	 x="0px" y="0px" viewBox="0 0 512 512" style="enable-background:new 0 0 512 512;" xml:space="preserve">
<style type="text/css">
	.st0{fill:#FFFFFF;}
</style>
<path class="st0" d="M256,0C114.6,0,0,114.6,0,256s114.6,256,256,256s256-114.6,256-256S397.4,0,256,0z M381.3,197.1L338,240.4
	L178.8,80.8L381.3,197.1z M121.6,415.1V96.9c0-11.6,6.3-20.6,15.6-25.5l185,184.5l-185,184.6C127.9,435.7,121.6,426.7,121.6,415.1z
	 M178.8,431.3L338,271.7l43.3,43.3L178.8,431.3z M444.7,278l-43.3,24.6L354,256l47.4-46.5l42.5,24.6
	C457.7,244.4,457.7,267.6,444.7,278z"/>
</svg>
