<svg width="100" height="100" viewBox="0 0 100 100" version="1.1" xmlns="http://www.w3.org/2000/svg" xmlns:xlink="http://www.w3.org/1999/xlink">
<title>instagram-icon</title>
<desc>Created using Figma</desc>
<g id="Canvas" transform="translate(-514 250)">
<g id="instagram-icon">
<use xlink:href="#path0_fill" transform="translate(514 -250)" fill="#FFFFFF"/>
</g>
</g>
<defs>
<path id="path0_fill" d="M 61.7875 26.2583C 58.7125 26.1167 57.7875 26.0917 50 26.0917C 42.2125 26.0917 41.2917 26.1208 38.2167 26.2583C 30.3042 26.6208 26.6208 30.3667 26.2583 38.2167C 26.1208 41.2917 26.0875 42.2125 26.0875 50C 26.0875 57.7875 26.1208 58.7083 26.2583 61.7875C 26.6208 69.6167 30.2875 73.3833 38.2167 73.7458C 41.2875 73.8833 42.2125 73.9167 50 73.9167C 57.7917 73.9167 58.7125 73.8875 61.7875 73.7458C 69.7 73.3875 73.3792 69.6292 73.7458 61.7875C 73.8833 58.7125 73.9125 57.7875 73.9125 50C 73.9125 42.2125 73.8833 41.2917 73.7458 38.2167C 73.3792 30.3708 69.6917 26.6208 61.7875 26.2583L 61.7875 26.2583ZM 50 64.9792C 41.7292 64.9792 35.0208 58.275 35.0208 50C 35.0208 41.7292 41.7292 35.025 50 35.025C 58.2708 35.025 64.9792 41.7292 64.9792 50C 64.9792 58.2708 58.2708 64.9792 50 64.9792ZM 65.5708 37.9333C 63.6375 37.9333 62.0708 36.3667 62.0708 34.4333C 62.0708 32.5 63.6375 30.9333 65.5708 30.9333C 67.5042 30.9333 69.0708 32.5 69.0708 34.4333C 69.0708 36.3625 67.5042 37.9333 65.5708 37.9333L 65.5708 37.9333ZM 59.7208 50C 59.7208 55.3708 55.3667 59.7208 50 59.7208C 44.6333 59.7208 40.2792 55.3708 40.2792 50C 40.2792 44.6292 44.6333 40.2792 50 40.2792C 55.3667 40.2792 59.7208 44.6292 59.7208 50ZM 50 0C 22.3875 0 0 22.3875 0 50C 0 77.6125 22.3875 100 50 100C 77.6125 100 100 77.6125 100 50C 100 22.3875 77.6125 0 50 0ZM 78.9917 62.025C 78.5125 72.6292 72.6083 78.5042 62.0292 78.9917C 58.9167 79.1333 57.9208 79.1667 50 79.1667C 42.0792 79.1667 41.0875 79.1333 37.975 78.9917C 27.375 78.5042 21.4958 72.6208 21.0083 62.025C 20.8667 58.9167 20.8333 57.9208 20.8333 50C 20.8333 42.0792 20.8667 41.0875 21.0083 37.975C 21.4958 27.375 27.3792 21.4958 37.975 21.0125C 41.0875 20.8667 42.0792 20.8333 50 20.8333C 57.9208 20.8333 58.9167 20.8667 62.0292 21.0125C 72.6333 21.5 78.5167 27.3958 78.9917 37.975C 79.1333 41.0875 79.1667 42.0792 79.1667 50C 79.1667 57.9208 79.1333 58.9167 78.9917 62.025Z"/>
</defs>
</svg>
