<svg width="100" height="100" viewBox="0 0 100 100" version="1.1" xmlns="http://www.w3.org/2000/svg" xmlns:xlink="http://www.w3.org/1999/xlink">
<title>linkedin-icon</title>
<desc>Created using Figma</desc>
<g id="Canvas" transform="translate(350 -200)">
<g id="linkedin-icon">
<use xlink:href="#path0_fill" transform="translate(-350 200)" fill="#FFFFFF"/>
</g>
</g>
<defs>
<path id="path0_fill" d="M 50 0C 22.3875 0 0 22.3875 0 50C 0 77.6125 22.3875 100 50 100C 77.6125 100 100 77.6125 100 50C 100 22.3875 77.6125 0 50 0ZM 41.6667 66.6667L 33.3333 66.6667L 33.3333 41.6667L 41.6667 41.6667L 41.6667 66.6667ZM 37.5 37.9542C 34.9708 37.9542 32.9167 35.8875 32.9167 33.3333C 32.9167 30.7833 34.9667 28.7125 37.5 28.7125C 40.0333 28.7125 42.0833 30.7833 42.0833 33.3333C 42.0833 35.8875 40.0292 37.9542 37.5 37.9542ZM 70.8333 66.6667L 62.5083 66.6667L 62.5083 54.7458C 62.5083 46.9083 54.1667 47.5708 54.1667 54.7458L 54.1667 66.6667L 45.8333 66.6667L 45.8333 41.6667L 54.1667 41.6667L 54.1667 46.2208C 57.8 39.4875 70.8333 38.9875 70.8333 52.6708L 70.8333 66.6667Z"/>
</defs>
</svg>
