<?xml version="1.0" encoding="UTF-8"?>
<svg width="142px" height="24px" viewBox="0 0 142 24" version="1.1" xmlns="http://www.w3.org/2000/svg" xmlns:xlink="http://www.w3.org/1999/xlink">
    <title>Group 22</title>
    <defs>
        <linearGradient x1="1.65059436%" y1="12.3064732%" x2="115.891329%" y2="75.1424746%" id="linearGradient-1">
            <stop stop-color="#00CDFF" offset="0%"></stop>
            <stop stop-color="#00B6FF" offset="11.774533%"></stop>
            <stop stop-color="#0067FF" offset="25.8358675%"></stop>
            <stop stop-color="#003FFF" offset="57.7670899%"></stop>
            <stop stop-color="#5643F4" offset="66.9893382%"></stop>
            <stop stop-color="#FF4BE3" offset="80.6355538%"></stop>
            <stop stop-color="#FF3FCF" offset="100%"></stop>
        </linearGradient>
    </defs>
    <g id="Page-1" stroke="none" stroke-width="1" fill="none" fill-rule="evenodd">
        <g id="1920" transform="translate(-495.000000, -885.000000)">
            <g id="Group-15" transform="translate(142.000000, 856.000000)">
                <g id="Group-43" transform="translate(353.000000, 29.000000)">
                    <path d="M0.935544238,4.26666667 C1.914102,4.26666667 2.70555092,5.05173333 2.70555092,6.0224 L2.70555092,6.0224 L2.70555092,7.44533333 L2.68834551,7.44533333 L2.68834551,12 C2.68834551,17.1477333 6.90797263,21.3333333 12.0975548,21.3333333 C17.287137,21.3333333 21.5067641,17.1477333 21.5067641,12 L21.5067641,12 L21.5067641,7.44533333 L21.4895587,7.44533333 L21.4895587,6.0224 C21.4895587,5.05173333 22.2810076,4.26666667 23.2595654,4.26666667 L23.2595654,4.26666667 L24.1951096,4.26666667 L24.1951096,12 C24.1951096,18.6176 18.768953,24 12.0975548,24 C5.42615658,24 0,18.6176 0,12 L0,12 L0,4.26666667 Z M1.34438782,0 C4.45641659,0 6.9899134,2.51306667 6.9899134,5.6 L6.9899134,12 C6.9899134,14.7946667 9.28038377,17.0666667 12.0977699,17.0666667 C14.915156,17.0666667 17.2056263,14.7946667 17.2056263,12 L17.2056263,5.6 C17.2056263,2.51306667 19.7391232,0 22.8511519,0 L24.1953247,0 L24.1953247,2.66666667 L22.8511519,2.66666667 C21.2209392,2.66666667 19.8939719,3.98293333 19.8939719,5.6 L19.8939719,12 C19.8939719,16.2645333 16.396972,19.7333333 12.0977699,19.7333333 C7.79856773,19.7333333 4.30156789,16.2645333 4.30156789,12 L4.30156789,5.6 C4.30156789,3.98293333 2.97460054,2.66666667 1.34438782,2.66666667 L0.000215067639,2.66666667 L0.000215067639,0 L1.34438782,0 Z" id="Combined-Shape" fill="url(#linearGradient-1)"></path>
                    <path d="M35,13.1851107 L35,5.24887788 L39.0582488,5.24887788 L39.0582488,12.9770933 C39.0582488,14.8046742 40.2083977,16.114069 41.8391779,16.114069 C43.4718282,16.114069 44.6219771,14.8046742 44.6219771,12.9770933 L44.6219771,5.24887788 L48.6802259,5.24887788 L48.6802259,13.1851107 C48.6802259,17.0482897 45.8562832,19.7692308 41.8391779,19.7692308 C37.8239427,19.7692308 35,17.0482897 35,13.1851107 M49.9504391,17.3603157 L52.2095933,14.6802353 C53.6739291,15.8224733 55.2635658,16.426095 56.9579314,16.426095 C58.0669367,16.426095 58.6522971,16.0509209 58.6522971,15.4268689 C58.6522971,14.7433834 58.151094,14.6393747 56.1631131,14.1824795 C53.0455551,13.4748491 50.6405284,12.6650673 50.6405284,9.69524841 C50.6405284,6.84801114 52.8996826,5 56.3089856,5 C58.7981696,5 60.7431368,5.66491255 62.3346436,6.93158954 L60.3055192,9.77696951 C58.9664841,8.82231853 57.5021482,8.34499304 56.2042566,8.34499304 C55.2224222,8.34499304 54.7417909,8.73874013 54.7417909,9.27921374 C54.7417909,10.0072744 55.242994,10.235722 57.2926902,10.6703297 C60.6384078,11.3779601 62.7311177,12.2713202 62.7311177,14.9922613 C62.7311177,18.004798 60.408378,19.7692308 56.8120589,19.7692308 C54.2181459,19.7692308 51.7701055,18.959449 49.9504391,17.3603157 M68.6045445,8.84293453 L68.6045445,10.4420678 L75.4455925,10.4420678 L75.4455925,14.0359387 L68.6045445,14.0359387 L68.6045445,15.9266677 L76.1151101,15.9266677 L76.1151101,19.5205386 L64.5462957,19.5205386 L64.5462957,5.24906361 L76.1151101,5.24906361 L76.1151101,8.84293453 L68.6045445,8.84293453 Z M82.2170706,11.5644328 L84.7062546,11.5644328 C85.6693873,11.5644328 86.3594767,11.0035289 86.3594767,10.2346076 C86.3594767,9.46568643 85.6693873,8.90478254 84.7062546,8.90478254 L82.2170706,8.90478254 L82.2170706,11.5644328 Z M86.5053492,19.5210958 L83.4719485,15.2195945 L82.2170706,15.2195945 L82.2170706,19.5210958 L78.1588218,19.5210958 L78.1588218,5.2496208 L85.0410133,5.2496208 C88.2614301,5.2496208 90.5430263,7.30564928 90.5430263,10.2346076 C90.5430263,12.2702059 89.4545927,13.8711964 87.6985118,14.6809782 L91.1283866,19.5210958 L86.5053492,19.5210958 Z M92.2536623,5.24887788 L94.0939005,5.24887788 L98.0679921,16.7994119 L101.875639,5.24887788 L103.695306,5.24887788 L107.501083,16.7994119 L111.475175,5.24887788 L113.317283,5.24887788 L108.40063,19.5203529 L106.790422,19.5203529 L102.795758,7.36805448 L98.7786532,19.5203529 L97.1684448,19.5203529 L92.2536623,5.24887788 Z M124.480085,14.7430119 L121.15494,7.24324408 L117.807352,14.7430119 L124.480085,14.7430119 Z M125.149603,16.2808544 L117.137834,16.2808544 L115.69407,19.5199814 L113.917417,19.5199814 L120.255392,5.24850642 L122.032045,5.24850642 L125.149603,12.2690915 L125.375892,12.777991 L126.249257,14.7430119 L124.480085,14.7430119 L126.249257,14.7430119 L128.37002,19.5199814 L126.591497,19.5199814 L125.149603,16.2808544 Z M134.472915,13.7038539 L128.679157,5.24943507 L130.708282,5.24943507 L135.331319,12.1660115 L139.9955,5.24943507 L141.961039,5.24943507 L136.187853,13.7038539 L136.187853,19.5209101 L134.472915,19.5209101 L134.472915,13.7038539 Z" id="Combined-Shape" fill="#1E2945"></path>
                </g>
            </g>
        </g>
    </g>
</svg>