<svg width="104" height="35" viewBox="0 0 104 35" version="1.1" xmlns="http://www.w3.org/2000/svg" xmlns:xlink="http://www.w3.org/1999/xlink">
<title>verified-buyer-icon</title>
<desc>Created using Figma</desc>
<g id="Canvas" transform="translate(-706 365)">
<g id="verified-buyer-icon">
<g id="Vector">
<use xlink:href="#path0_fill" transform="translate(706 -365)" fill="#999999"/>
</g>
<g id="VERIFIED BUYER">
<use xlink:href="#path1_fill" transform="translate(740 -367)" fill="#999999"/>
</g>
</g>
</g>
<defs>
<path id="path0_fill" d="M 16.0417 28.4375C 16.0417 23.2021 20.2854 18.9583 25.5208 18.9583L 26.25 18.9948L 26.25 8.75L 18.9583 8.75L 18.9583 5.83333C 18.9583 2.61187 16.3465 0 13.125 0C 9.90354 0 7.29167 2.61187 7.29167 5.83333L 7.29167 8.75L 0 8.75L 0 35L 18.69 35C 17.0523 33.2967 16.0417 30.9867 16.0417 28.4375ZM 8.75 5.83333C 8.75 3.42125 10.7129 1.45833 13.125 1.45833C 15.5371 1.45833 17.5 3.42125 17.5 5.83333L 17.5 8.75L 8.75 8.75L 8.75 5.83333ZM 2.91667 11.6667L 7.29167 11.6667L 7.29167 13.8542C 7.29167 14.2567 7.61833 14.5833 8.02083 14.5833C 8.42333 14.5833 8.75 14.2567 8.75 13.8542L 8.75 11.6667L 17.5 11.6667L 17.5 13.8542C 17.5 14.2567 17.8267 14.5833 18.2292 14.5833C 18.6317 14.5833 18.9583 14.2567 18.9583 13.8542L 18.9583 11.6667L 23.3333 11.6667L 23.3333 17.5L 2.91667 17.5L 2.91667 11.6667ZM 25.5208 21.875C 21.8954 21.875 18.9583 24.8135 18.9583 28.4375C 18.9583 32.0615 21.8954 35 25.5208 35C 29.1433 35 32.0833 32.0615 32.0833 28.4375C 32.0833 24.8135 29.1433 21.875 25.5208 21.875ZM 24.8369 31.3308L 22.3752 28.9435L 23.3887 27.9271L 24.8354 29.2979L 27.9198 26.1348L 28.9362 27.1498L 24.8369 31.3308L 24.8369 31.3308Z"/>
<path id="path1_fill" d="M 7.95312 5.57812L 10.3984 5.57812L 6.51562 17L 3.875 17L 0 5.57812L 2.44531 5.57812L 4.59375 12.375C 4.71354 12.776 4.83594 13.2448 4.96094 13.7812C 5.09115 14.3125 5.17188 14.6823 5.20312 14.8906C 5.26042 14.4115 5.45573 13.5729 5.78906 12.375L 7.95312 5.57812ZM 18.4219 17L 11.8438 17L 11.8438 5.57812L 18.4219 5.57812L 18.4219 7.5625L 14.2656 7.5625L 14.2656 10.0703L 18.1328 10.0703L 18.1328 12.0547L 14.2656 12.0547L 14.2656 15L 18.4219 15L 18.4219 17ZM 23.2344 10.6484L 24.0156 10.6484C 24.7812 10.6484 25.3464 10.5208 25.7109 10.2656C 26.0755 10.0104 26.2578 9.60938 26.2578 9.0625C 26.2578 8.52083 26.0703 8.13542 25.6953 7.90625C 25.3255 7.67708 24.75 7.5625 23.9688 7.5625L 23.2344 7.5625L 23.2344 10.6484ZM 23.2344 12.6172L 23.2344 17L 20.8125 17L 20.8125 5.57812L 24.1406 5.57812C 25.6927 5.57812 26.8411 5.86198 27.5859 6.42969C 28.3307 6.99219 28.7031 7.84896 28.7031 9C 28.7031 9.67188 28.5182 10.2708 28.1484 10.7969C 27.7786 11.3177 27.2552 11.7266 26.5781 12.0234C 28.2969 14.5911 29.4167 16.25 29.9375 17L 27.25 17L 24.5234 12.6172L 23.2344 12.6172ZM 31.375 17L 31.375 5.57812L 33.7969 5.57812L 33.7969 17L 31.375 17ZM 39.0547 17L 36.6719 17L 36.6719 5.57812L 43.2188 5.57812L 43.2188 7.5625L 39.0547 7.5625L 39.0547 10.5078L 42.9297 10.5078L 42.9297 12.4844L 39.0547 12.4844L 39.0547 17ZM 45.4531 17L 45.4531 5.57812L 47.875 5.57812L 47.875 17L 45.4531 17ZM 57.3281 17L 50.75 17L 50.75 5.57812L 57.3281 5.57812L 57.3281 7.5625L 53.1719 7.5625L 53.1719 10.0703L 57.0391 10.0703L 57.0391 12.0547L 53.1719 12.0547L 53.1719 15L 57.3281 15L 57.3281 17ZM 69.1953 11.1797C 69.1953 13.0599 68.6589 14.5 67.5859 15.5C 66.5182 16.5 64.974 17 62.9531 17L 59.7188 17L 59.7188 5.57812L 63.3047 5.57812C 65.1693 5.57812 66.6172 6.07031 67.6484 7.05469C 68.6797 8.03906 69.1953 9.41406 69.1953 11.1797ZM 66.6797 11.2422C 66.6797 8.78906 65.5964 7.5625 63.4297 7.5625L 62.1406 7.5625L 62.1406 15L 63.1797 15C 65.513 15 66.6797 13.7474 66.6797 11.2422ZM 1.88672 21.0088L 6.55225 21.0088C 8.67822 21.0088 10.2197 21.313 11.1768 21.9214C 12.1406 22.5229 12.6226 23.4834 12.6226 24.8027C 12.6226 25.6982 12.4106 26.4331 11.9868 27.0073C 11.5698 27.5815 11.0127 27.9268 10.3154 28.043L 10.3154 28.1455C 11.2656 28.3574 11.9492 28.7539 12.3662 29.335C 12.79 29.916 13.002 30.6885 13.002 31.6523C 13.002 33.0195 12.5063 34.0859 11.5151 34.8516C 10.5308 35.6172 9.19092 36 7.49561 36L 1.88672 36L 1.88672 21.0088ZM 5.06543 26.9458L 6.91113 26.9458C 7.77246 26.9458 8.39453 26.8125 8.77734 26.5459C 9.16699 26.2793 9.36182 25.8384 9.36182 25.2231C 9.36182 24.6489 9.1499 24.2388 8.72607 23.9927C 8.30908 23.7397 7.646 23.6133 6.73682 23.6133L 5.06543 23.6133L 5.06543 26.9458ZM 5.06543 29.4683L 5.06543 33.375L 7.13672 33.375C 8.01172 33.375 8.65771 33.2075 9.07471 32.8726C 9.4917 32.5376 9.7002 32.0249 9.7002 31.3345C 9.7002 30.0903 8.81152 29.4683 7.03418 29.4683L 5.06543 29.4683ZM 28.1982 21.0088L 28.1982 30.709C 28.1982 31.8164 27.9487 32.7871 27.4497 33.6211C 26.9575 34.4551 26.2432 35.0942 25.3066 35.5386C 24.3701 35.9829 23.2627 36.2051 21.9844 36.2051C 20.0566 36.2051 18.5596 35.7129 17.4932 34.7285C 16.4268 33.7373 15.8936 32.3838 15.8936 30.668L 15.8936 21.0088L 19.062 21.0088L 19.062 30.186C 19.062 31.3413 19.2944 32.189 19.7593 32.729C 20.2241 33.269 20.9932 33.5391 22.0664 33.5391C 23.1055 33.5391 23.8574 33.269 24.3223 32.729C 24.7939 32.1821 25.0298 31.3276 25.0298 30.1655L 25.0298 21.0088L 28.1982 21.0088ZM 36.5347 27.1816L 39.6621 21.0088L 43.0869 21.0088L 38.1138 30.1655L 38.1138 36L 34.9556 36L 34.9556 30.2681L 29.9824 21.0088L 33.4277 21.0088L 36.5347 27.1816ZM 53.6074 36L 44.9736 36L 44.9736 21.0088L 53.6074 21.0088L 53.6074 23.6133L 48.1523 23.6133L 48.1523 26.9048L 53.228 26.9048L 53.228 29.5093L 48.1523 29.5093L 48.1523 33.375L 53.6074 33.375L 53.6074 36ZM 59.9238 27.6636L 60.9492 27.6636C 61.9541 27.6636 62.6958 27.4961 63.1743 27.1611C 63.6528 26.8262 63.8921 26.2998 63.8921 25.582C 63.8921 24.8711 63.646 24.3652 63.1538 24.0645C 62.6685 23.7637 61.9131 23.6133 60.8877 23.6133L 59.9238 23.6133L 59.9238 27.6636ZM 59.9238 30.2476L 59.9238 36L 56.7451 36L 56.7451 21.0088L 61.1133 21.0088C 63.1504 21.0088 64.6577 21.3813 65.6353 22.1265C 66.6128 22.8647 67.1016 23.9893 67.1016 25.5C 67.1016 26.3818 66.8589 27.168 66.3735 27.8584C 65.8882 28.542 65.2012 29.0786 64.3125 29.4683C 66.5684 32.8384 68.0381 35.0156 68.7217 36L 65.1943 36L 61.6157 30.2476L 59.9238 30.2476Z"/>
</defs>
</svg>
