<svg width="20" height="34" viewBox="0 0 20 34" fill="none" xmlns="http://www.w3.org/2000/svg">
<path d="M19.7706 2.79352C19.7706 2.49219 19.6367 2.22433 19.4358 2.02344L17.7617 0.349328C17.5608 0.148438 17.2595 0.0145059 16.9916 0.0145059C16.7238 0.0145059 16.4224 0.148438 16.2215 0.349328L0.618862 15.952C0.417969 16.1529 0.28404 16.4542 0.28404 16.7221C0.28404 16.99 0.417969 17.2913 0.618862 17.4922L16.2215 33.0949C16.4224 33.2958 16.7238 33.4297 16.9916 33.4297C17.2595 33.4297 17.5608 33.2958 17.7617 33.0949L19.4358 31.4208C19.6367 31.2199 19.7706 30.9185 19.7706 30.6507C19.7706 30.3828 19.6367 30.0815 19.4358 29.8806L6.27734 16.7221L19.4358 3.56362C19.6367 3.36272 19.7706 3.06138 19.7706 2.79352Z" fill="#C4C4C4"/>
</svg>
