<svg width="54" height="54" viewBox="0 0 54 54" version="1.1" xmlns="http://www.w3.org/2000/svg" xmlns:xlink="http://www.w3.org/1999/xlink">
<title>magnifying-glass</title>
<desc>Created using Figma</desc>
<g id="Canvas" transform="matrix(3 0 0 3 -321 1164)">
<g id="magnifying-glass">
<g id="Vector">
<use xlink:href="#path0_fill" transform="translate(107 -388)" fill="#FFFFFF"/>
</g>
</g>
</g>
<defs>
<path id="path0_fill" d="M 7.80434 0.0222981C 3.50081 0.0222981 0 3.5231 0 7.82664C 0 12.1302 3.50081 15.631 7.80434 15.631C 9.11993 15.631 10.4132 15.3188 11.5058 14.7168C 11.5934 14.8221 11.6904 14.9191 11.7957 15.0066L 14.0255 17.2365C 14.2314 17.4681 14.4825 17.6553 14.7633 17.7864C 15.0442 17.9175 15.3489 17.9899 15.6587 17.999C 15.9685 18.0081 16.2769 17.9538 16.565 17.8395C 16.853 17.7251 17.1147 17.553 17.3338 17.3338C 17.553 17.1147 17.7251 16.853 17.8395 16.565C 17.9538 16.2769 18.0081 15.9685 17.999 15.6587C 17.9899 15.3489 17.9175 15.0442 17.7864 14.7633C 17.6553 14.4825 17.4681 14.2314 17.2365 14.0255L 15.0066 11.7957C 14.898 11.6871 14.7785 11.5899 14.6499 11.5058C 15.2519 10.4132 15.631 9.14223 15.631 7.80434C 15.631 3.50081 12.1302 4.98403e-10 7.82664 4.98403e-10L 7.80434 0.0222981ZM 7.80434 2.25211C 10.9038 2.25211 13.3789 4.7272 13.3789 7.82664C 13.3789 9.29832 12.8437 10.6585 11.9072 11.6619C 11.8849 11.6842 11.8626 11.7065 11.8403 11.7288C 11.735 11.8163 11.6379 11.9134 11.5504 12.0187C 10.5693 12.9106 9.23142 13.4235 7.78205 13.4235C 4.68261 13.4235 2.20751 10.9484 2.20751 7.84894C 2.20751 4.7495 4.68261 2.27441 7.78205 2.27441L 7.80434 2.25211Z"/>
</defs>
</svg>
