<svg width="100" height="100" viewBox="0 0 100 100" version="1.1" xmlns="http://www.w3.org/2000/svg" xmlns:xlink="http://www.w3.org/1999/xlink">
<title>phone-icon</title>
<desc>Created using Figma</desc>
<g id="Canvas" transform="translate(62 248)">
<g id="phone-icon">
<use xlink:href="#path0_fill" transform="translate(-62 -248)" fill="#FFFFFF"/>
</g>
</g>
<defs>
<path id="path0_fill" d="M 50 8.33333C 72.975 8.33333 91.6667 27.025 91.6667 50C 91.6667 72.975 72.975 91.6667 50 91.6667C 27.025 91.6667 8.33333 72.975 8.33333 50C 8.33333 27.025 27.025 8.33333 50 8.33333ZM 50 0C 22.3875 0 0 22.3875 0 50C 0 77.6125 22.3875 100 50 100C 77.6125 100 100 77.6125 100 50C 100 22.3875 77.6125 0 50 0ZM 68.75 72.1292L 61.4167 57.975L 57.1167 60.0792C 52.45 62.3417 42.95 43.7875 47.5125 41.3417L 51.8542 39.2042L 44.575 25L 40.1875 27.1667C 25.1833 34.9875 49.0083 81.2958 64.3542 74.2833L 68.75 72.1292L 68.75 72.1292Z"/>
</defs>
</svg>
