<svg width="21" height="34" viewBox="0 0 21 34" fill="none" xmlns="http://www.w3.org/2000/svg">
<path d="M20.1992 16.7221C20.1992 16.4542 20.0653 16.1529 19.8644 15.952L4.26172 0.349328C4.06083 0.148438 3.75949 0.0145059 3.49163 0.0145059C3.22377 0.0145059 2.92243 0.148438 2.72154 0.349328L1.04743 2.02344C0.84654 2.22433 0.712612 2.52567 0.712612 2.79352C0.712612 3.06138 0.84654 3.36272 1.04743 3.56362L14.2059 16.7221L1.04743 29.8806C0.84654 30.0815 0.712612 30.3828 0.712612 30.6507C0.712612 30.952 0.84654 31.2199 1.04743 31.4208L2.72154 33.0949C2.92243 33.2958 3.22377 33.4297 3.49163 33.4297C3.75949 33.4297 4.06083 33.2958 4.26172 33.0949L19.8644 17.4922C20.0653 17.2913 20.1992 16.99 20.1992 16.7221Z" fill="#C4C4C4"/>
</svg>
