<svg width="84" height="195" viewBox="0 0 84 195" fill="none" xmlns="http://www.w3.org/2000/svg">
<path d="M0.0107422 0H83.0107V1H0.0107422V0Z" fill="white" fill-opacity="0.01"/>
<path d="M0.0107422 194H83.0107V195H0.0107422V194Z" fill="white" fill-opacity="0.01"/>
<path d="M8.01074 5.25323L8.93007 8.04359H11.9067L9.49874 9.76867L10.418 12.559L8.01074 10.834L5.60274 12.559L6.52207 9.76867L4.11407 8.04359H7.09074L8.01074 5.25323ZM8.01074 1L6.12207 6.72924H0.0107422L4.95474 10.2708L3.06607 16L8.01074 12.4591L12.9547 16L11.066 10.2708L16.0107 6.72924H9.89941L8.01074 1Z" fill="#CCCCCC"/>
<path d="M25.0107 5.25323L25.9301 8.04359H28.9067L26.4987 9.76867L27.418 12.559L25.0107 10.834L22.6027 12.559L23.5221 9.76867L21.1141 8.04359H24.0907L25.0107 5.25323ZM25.0107 1L23.1221 6.72924H17.0107L21.9547 10.2708L20.0661 16L25.0107 12.4591L29.9547 16L28.066 10.2708L33.0107 6.72924H26.8994L25.0107 1Z" fill="#CCCCCC"/>
<path d="M42.0107 5.25323L42.9301 8.04359H45.9067L43.4987 9.76867L44.418 12.559L42.0107 10.834L39.6027 12.559L40.5221 9.76867L38.1141 8.04359H41.0907L42.0107 5.25323ZM42.0107 1L40.1221 6.72924H34.0107L38.9547 10.2708L37.0661 16L42.0107 12.4591L46.9547 16L45.066 10.2708L50.0107 6.72924H43.8994L42.0107 1Z" fill="#CCCCCC"/>
<path d="M58.0107 5.25323L58.9301 8.04359H61.9067L59.4987 9.76867L60.418 12.559L58.0107 10.834L55.6027 12.559L56.5221 9.76867L54.1141 8.04359H57.0907L58.0107 5.25323ZM58.0107 1L56.1221 6.72924H50.0107L54.9547 10.2708L53.0661 16L58.0107 12.4591L62.9547 16L61.066 10.2708L66.0107 6.72924H59.8994L58.0107 1Z" fill="#CCCCCC"/>
<path d="M75.0107 5.25323L75.9301 8.04359H78.9067L76.4987 9.76867L77.418 12.559L75.0107 10.834L72.6027 12.559L73.5221 9.76867L71.1141 8.04359H74.0907L75.0107 5.25323ZM75.0107 1L73.1221 6.72924H67.0107L71.9547 10.2708L70.0661 16L75.0107 12.4591L79.9547 16L78.066 10.2708L83.0107 6.72924H76.8994L75.0107 1Z" fill="#CCCCCC"/>
<path d="M8.01074 23.2532L8.93007 26.0436H11.9067L9.49874 27.7687L10.418 30.559L8.01074 28.834L5.60274 30.559L6.52207 27.7687L4.11407 26.0436H7.09074L8.01074 23.2532ZM8.01074 19L6.12207 24.7292L0 24.5L4.95474 28.2708L3.06607 34L8.01074 30.4591L12.9547 34L11.066 28.2708L16.0107 24.7292H9.89941L8.01074 19Z" fill="#CCCCCC"/>
<mask id="mask0" mask-type="alpha" maskUnits="userSpaceOnUse" x="0" y="19" width="8" height="16">
<path d="M0 19H8V34.2043H0V19Z" fill="#C4C4C4"/>
</mask>
<g mask="url(#mask0)">
<path d="M8.10896 19L9.92954 24.6032H15.821L11.0547 28.0661L12.8753 33.6693L8.10896 30.2063L3.34264 33.6693L5.16321 28.0661L0.396881 24.6032H6.28839L8.10896 19Z" fill="#24A186"/>
</g>
<path d="M25.0107 23.2532L25.9301 26.0436H28.9067L26.4987 27.7687L27.418 30.559L25.0107 28.834L22.6027 30.559L23.5221 27.7687L21.1141 26.0436H24.0907L25.0107 23.2532ZM25.0107 19L23.1221 24.7292H17.0107L21.9547 28.2708L20.0661 34L25.0107 30.4591L29.9547 34L28.066 28.2708L33.0107 24.7292H26.8994L25.0107 19Z" fill="#CCCCCC"/>
<path d="M42.0107 23.2532L42.9301 26.0436H45.9067L43.4987 27.7687L44.418 30.559L42.0107 28.834L39.6027 30.559L40.5221 27.7687L38.1141 26.0436H41.0907L42.0107 23.2532ZM42.0107 19L40.1221 24.7292H34.0107L38.9547 28.2708L37.0661 34L42.0107 30.4591L46.9547 34L45.066 28.2708L50.0107 24.7292H43.8994L42.0107 19Z" fill="#CCCCCC"/>
<path d="M58.0107 23.2532L58.9301 26.0436H61.9067L59.4987 27.7687L60.418 30.559L58.0107 28.834L55.6027 30.559L56.5221 27.7687L54.1141 26.0436H57.0907L58.0107 23.2532ZM58.0107 19L56.1221 24.7292H50.0107L54.9547 28.2708L53.0661 34L58.0107 30.4591L62.9547 34L61.066 28.2708L66.0107 24.7292H59.8994L58.0107 19Z" fill="#CCCCCC"/>
<path d="M75.0107 23.2532L75.9301 26.0436H78.9067L76.4987 27.7687L77.418 30.559L75.0107 28.834L72.6027 30.559L73.5221 27.7687L71.1141 26.0436H74.0907L75.0107 23.2532ZM75.0107 19L73.1221 24.7292H67.0107L71.9547 28.2708L70.0661 34L75.0107 30.4591L79.9547 34L78.066 28.2708L83.0107 24.7292H76.8994L75.0107 19Z" fill="#CCCCCC"/>
<path d="M25.0107 41.2532L25.9301 44.0436H28.9067L26.4987 45.7687L27.418 48.559L25.0107 46.834L22.6027 48.559L23.5221 45.7687L21.1141 44.0436H24.0907L25.0107 41.2532ZM25.0107 37L23.1221 42.7292H17.0107L21.9547 46.2708L20.0661 52L25.0107 48.4591L29.9547 52L28.066 46.2708L33.0107 42.7292H26.8994L25.0107 37Z" fill="#CCCCCC"/>
<path d="M42.0107 41.2532L42.9301 44.0436H45.9067L43.4987 45.7687L44.418 48.559L42.0107 46.834L39.6027 48.559L40.5221 45.7687L38.1141 44.0436H41.0907L42.0107 41.2532ZM42.0107 37L40.1221 42.7292H34.0107L38.9547 46.2708L37.0661 52L42.0107 48.4591L46.9547 52L45.066 46.2708L50.0107 42.7292H43.8994L42.0107 37Z" fill="#CCCCCC"/>
<path d="M58.0107 41.2532L58.9301 44.0436H61.9067L59.4987 45.7687L60.418 48.559L58.0107 46.834L55.6027 48.559L56.5221 45.7687L54.1141 44.0436H57.0907L58.0107 41.2532ZM58.0107 37L56.1221 42.7292H50.0107L54.9547 46.2708L53.0661 52L58.0107 48.4591L62.9547 52L61.066 46.2708L66.0107 42.7292H59.8994L58.0107 37Z" fill="#CCCCCC"/>
<path d="M75.0107 41.2532L75.9301 44.0436H78.9067L76.4987 45.7687L77.418 48.559L75.0107 46.834L72.6027 48.559L73.5221 45.7687L71.1141 44.0436H74.0907L75.0107 41.2532ZM75.0107 37L73.1221 42.7292H67.0107L71.9547 46.2708L70.0661 52L75.0107 48.4591L79.9547 52L78.066 46.2708L83.0107 42.7292H76.8994L75.0107 37Z" fill="#CCCCCC"/>
<path d="M25.0107 57.2532L25.9301 60.0436H28.9067L26.4987 61.7687L27.418 64.559L25.0107 62.834L22.6027 64.559L23.5221 61.7687L21.1141 60.0436H24.0907L25.0107 57.2532ZM25.0107 53L23.1221 58.7292H17.0107L21.9547 62.2708L20.0661 68L25.0107 64.4591L29.9547 68L28.066 62.2708L33.0107 58.7292H26.8994L25.0107 53Z" fill="#CCCCCC"/>
<path d="M42.0107 57.2532L42.9301 60.0436H45.9067L43.4987 61.7687L44.418 64.559L42.0107 62.834L39.6027 64.559L40.5221 61.7687L38.1141 60.0436H41.0907L42.0107 57.2532ZM42.0107 53L40.1221 58.7292H34.0107L38.9547 62.2708L37.0661 68L42.0107 64.4591L46.9547 68L45.066 62.2708L50.0107 58.7292H43.8994L42.0107 53Z" fill="#CCCCCC"/>
<path d="M58.0107 57.2532L58.9301 60.0436H61.9067L59.4987 61.7687L60.418 64.559L58.0107 62.834L55.6027 64.559L56.5221 61.7687L54.1141 60.0436H57.0907L58.0107 57.2532ZM58.0107 53L56.1221 58.7292H50.0107L54.9547 62.2708L53.0661 68L58.0107 64.4591L62.9547 68L61.066 62.2708L66.0107 58.7292H59.8994L58.0107 53Z" fill="#CCCCCC"/>
<path d="M75.0107 57.2532L75.9301 60.0436H78.9067L76.4987 61.7687L77.418 64.559L75.0107 62.834L72.6027 64.559L73.5221 61.7687L71.1141 60.0436H74.0907L75.0107 57.2532ZM75.0107 53L73.1221 58.7292H67.0107L71.9547 62.2708L70.0661 68L75.0107 64.4591L79.9547 68L78.066 62.2708L83.0107 58.7292H76.8994L75.0107 53Z" fill="#CCCCCC"/>
<path d="M42.0107 77.2532L42.9301 80.0436H45.9067L43.4987 81.7687L44.418 84.559L42.0107 82.834L39.6027 84.559L40.5221 81.7687L38.1141 80.0436H41.0907L42.0107 77.2532ZM42.0107 73L40.1221 78.7292H34.0107L38.9547 82.2708L37.0661 88L42.0107 84.4591L46.9547 88L45.066 82.2708L50.0107 78.7292H43.8994L42.0107 73Z" fill="#CCCCCC"/>
<path d="M58.0107 77.2532L58.9301 80.0436H61.9067L59.4987 81.7687L60.418 84.559L58.0107 82.834L55.6027 84.559L56.5221 81.7687L54.1141 80.0436H57.0907L58.0107 77.2532ZM58.0107 73L56.1221 78.7292H50.0107L54.9547 82.2708L53.0661 88L58.0107 84.4591L62.9547 88L61.066 82.2708L66.0107 78.7292H59.8994L58.0107 73Z" fill="#CCCCCC"/>
<path d="M75.0107 77.2532L75.9301 80.0436H78.9067L76.4987 81.7687L77.418 84.559L75.0107 82.834L72.6027 84.559L73.5221 81.7687L71.1141 80.0436H74.0907L75.0107 77.2532ZM75.0107 73L73.1221 78.7292H67.0107L71.9547 82.2708L70.0661 88L75.0107 84.4591L79.9547 88L78.066 82.2708L83.0107 78.7292H76.8994L75.0107 73Z" fill="#CCCCCC"/>
<path d="M42.0107 95.2532L42.9301 98.0436H45.9067L43.4987 99.7687L44.418 102.559L42.0107 100.834L39.6027 102.559L40.5221 99.7687L38.1141 98.0436H41.0907L42.0107 95.2532ZM42.0107 91L40.1221 96.7292H34.0107L38.9547 100.271L37.0661 106L42.0107 102.459L46.9547 106L45.066 100.271L50.0107 96.7292H43.8994L42.0107 91Z" fill="#CCCCCC"/>
<path d="M58.0107 95.2532L58.9301 98.0436H61.9067L59.4987 99.7687L60.418 102.559L58.0107 100.834L55.6027 102.559L56.5221 99.7687L54.1141 98.0436H57.0907L58.0107 95.2532ZM58.0107 91L56.1221 96.7292H50.0107L54.9547 100.271L53.0661 106L58.0107 102.459L62.9547 106L61.066 100.271L66.0107 96.7292H59.8994L58.0107 91Z" fill="#CCCCCC"/>
<path d="M75.0107 95.2532L75.9301 98.0436H78.9067L76.4987 99.7687L77.418 102.559L75.0107 100.834L72.6027 102.559L73.5221 99.7687L71.1141 98.0436H74.0907L75.0107 95.2532ZM75.0107 91L73.1221 96.7292H67.0107L71.9547 100.271L70.0661 106L75.0107 102.459L79.9547 106L78.066 100.271L83.0107 96.7292H76.8994L75.0107 91Z" fill="#CCCCCC"/>
<path d="M58.0107 112.253L58.9301 115.044H61.9067L59.4987 116.769L60.418 119.559L58.0107 117.834L55.6027 119.559L56.5221 116.769L54.1141 115.044H57.0907L58.0107 112.253ZM58.0107 108L56.1221 113.729H50.0107L54.9547 117.271L53.0661 123L58.0107 119.459L62.9547 123L61.066 117.271L66.0107 113.729H59.8994L58.0107 108Z" fill="#CCCCCC"/>
<path d="M75.0107 112.253L75.9301 115.044H78.9067L76.4987 116.769L77.418 119.559L75.0107 117.834L72.6027 119.559L73.5221 116.769L71.1141 115.044H74.0907L75.0107 112.253ZM75.0107 108L73.1221 113.729H67.0107L71.9547 117.271L70.0661 123L75.0107 119.459L79.9547 123L78.066 117.271L83.0107 113.729H76.8994L75.0107 108Z" fill="#CCCCCC"/>
<path d="M58.0107 130.253L58.9301 133.044H61.9067L59.4987 134.769L60.418 137.559L58.0107 135.834L55.6027 137.559L56.5221 134.769L54.1141 133.044H57.0907L58.0107 130.253ZM58.0107 126L56.1221 131.729H50.0107L54.9547 135.271L53.0661 141L58.0107 137.459L62.9547 141L61.066 135.271L66.0107 131.729H59.8994L58.0107 126Z" fill="#CCCCCC"/>
<path d="M75.0107 130.253L75.9301 133.044H78.9067L76.4987 134.769L77.418 137.559L75.0107 135.834L72.6027 137.559L73.5221 134.769L71.1141 133.044H74.0907L75.0107 130.253ZM75.0107 126L73.1221 131.729H67.0107L71.9547 135.271L70.0661 141L75.0107 137.459L79.9547 141L78.066 135.271L83.0107 131.729H76.8994L75.0107 126Z" fill="#CCCCCC"/>
<path d="M75.0107 148.253L75.9301 151.044H78.9067L76.4987 152.769L77.418 155.559L75.0107 153.834L72.6027 155.559L73.5221 152.769L71.1141 151.044H74.0907L75.0107 148.253ZM75.0107 144L73.1221 149.729H67.0107L71.9547 153.271L70.0661 159L75.0107 155.459L79.9547 159L78.066 153.271L83.0107 149.729H76.8994L75.0107 144Z" fill="#CCCCCC"/>
<path d="M75.0107 165.253L75.9301 168.044H78.9067L76.4987 169.769L77.418 172.559L75.0107 170.834L72.6027 172.559L73.5221 169.769L71.1141 168.044H74.0907L75.0107 165.253ZM75.0107 161L73.1221 166.729H67.0107L71.9547 170.271L70.0661 176L75.0107 172.459L79.9547 176L78.066 170.271L83.0107 166.729H76.8994L75.0107 161Z" fill="#CCCCCC"/>
<path d="M8.01074 41.2532L8.93007 44.0436H11.9067L9.49874 45.7687L10.418 48.559L8.01074 46.834L5.60274 48.559L6.52207 45.7687L4.11407 44.0436H7.09074L8.01074 41.2532ZM8.01074 37L6.12207 42.7292H0.0107422L4.95474 46.2708L3.06607 52L8.01074 48.4591L12.9547 52L11.066 46.2708L16.0107 42.7292H9.89941L8.01074 37Z" fill="#24A186"/>
<path d="M8.01074 57.2532L8.93007 60.0436H11.9067L9.49874 61.7687L10.418 64.559L8.01074 62.834L5.60274 64.559L6.52207 61.7687L4.11407 60.0436H7.09074L8.01074 57.2532ZM8.01074 53L6.12207 58.7292H0.0107422L4.95474 62.2708L3.06607 68L8.01074 64.4591L12.9547 68L11.066 62.2708L16.0107 58.7292H9.89941L8.01074 53Z" fill="#24A186"/>
<path d="M8.01074 77.2532L8.93007 80.0436H11.9067L9.49874 81.7687L10.418 84.559L8.01074 82.834L5.60274 84.559L6.52207 81.7687L4.11407 80.0436H7.09074L8.01074 77.2532ZM8.01074 73L6.12207 78.7292H0.0107422L4.95474 82.2708L3.06607 88L8.01074 84.4591L12.9547 88L11.066 82.2708L16.0107 78.7292H9.89941L8.01074 73Z" fill="#24A186"/>
<path d="M25.0107 77.2532L25.9301 80.0436H28.9067L26.4987 81.7687L27.418 84.559L25.0107 82.834L22.6027 84.559L23.5221 81.7687L21.1141 80.0436H24.0907L25.0107 77.2532ZM25.0107 73L23.1221 78.7292H17.0107L21.9547 82.2708L20.0661 88L25.0107 84.4591L29.9547 88L28.066 82.2708L33.0107 78.7292H26.8994L25.0107 73Z" fill="#24A186"/>
<path d="M25.0107 95.2532L25.9301 98.0436H28.9067L26.4987 99.7687L27.418 102.559L25.0107 100.834L22.6027 102.559L23.5221 99.7687L21.1141 98.0436H24.0907L25.0107 95.2532ZM25.0107 91L23.1221 96.7292H17.0107L21.9547 100.271L20.0661 106L25.0107 102.459L29.9547 106L28.066 100.271L33.0107 96.7292H26.8994L25.0107 91Z" fill="#24A186"/>
<path d="M25.0107 112.253L25.9301 115.044H28.9067L26.4987 116.769L27.418 119.559L25.0107 117.834L22.6027 119.559L23.5221 116.769L21.1141 115.044H24.0907L25.0107 112.253ZM25.0107 108L23.1221 113.729H17.0107L21.9547 117.271L20.0661 123L25.0107 119.459L29.9547 123L28.066 117.271L33.0107 113.729H26.8994L25.0107 108Z" fill="#24A186"/>
<path d="M42.0107 112.253L42.9301 115.044H45.9067L43.4987 116.769L44.418 119.559L42.0107 117.834L39.6027 119.559L40.5221 116.769L38.1141 115.044H41.0907L42.0107 112.253ZM42.0107 108L40.1221 113.729H34.0107L38.9547 117.271L37.0661 123L42.0107 119.459L46.9547 123L45.066 117.271L50.0107 113.729H43.8994L42.0107 108Z" fill="#24A186"/>
<path d="M42.0107 130.253L42.9301 133.044H45.9067L43.4987 134.769L44.418 137.559L42.0107 135.834L39.6027 137.559L40.5221 134.769L38.1141 133.044H41.0907L42.0107 130.253ZM42.0107 126L40.1221 131.729H34.0107L38.9547 135.271L37.0661 141L42.0107 137.459L46.9547 141L45.066 135.271L50.0107 131.729H43.8994L42.0107 126Z" fill="#24A186"/>
<path d="M42.0107 148.253L42.9301 151.044H45.9067L43.4987 152.769L44.418 155.559L42.0107 153.834L39.6027 155.559L40.5221 152.769L38.1141 151.044H41.0907L42.0107 148.253ZM42.0107 144L40.1221 149.729H34.0107L38.9547 153.271L37.0661 159L42.0107 155.459L46.9547 159L45.066 153.271L50.0107 149.729H43.8994L42.0107 144Z" fill="#24A186"/>
<path d="M58.0107 148.253L58.9301 151.044H61.9067L59.4987 152.769L60.418 155.559L58.0107 153.834L55.6027 155.559L56.5221 152.769L54.1141 151.044H57.0907L58.0107 148.253ZM58.0107 144L56.1221 149.729H50.0107L54.9547 153.271L53.0661 159L58.0107 155.459L62.9547 159L61.066 153.271L66.0107 149.729H59.8994L58.0107 144Z" fill="#24A186"/>
<path d="M58.0107 165.253L58.9301 168.044H61.9067L59.4987 169.769L60.418 172.559L58.0107 170.834L55.6027 172.559L56.5221 169.769L54.1141 168.044H57.0907L58.0107 165.253ZM58.0107 161L56.1221 166.729H50.0107L54.9547 170.271L53.0661 176L58.0107 172.459L62.9547 176L61.066 170.271L66.0107 166.729H59.8994L58.0107 161Z" fill="#24A186"/>
<path d="M58.0107 183.253L58.9301 186.044H61.9067L59.4987 187.769L60.418 190.559L58.0107 188.834L55.6027 190.559L56.5221 187.769L54.1141 186.044H57.0907L58.0107 183.253ZM58.0107 179L56.1221 184.729H50.0107L54.9547 188.271L53.0661 194L58.0107 190.459L62.9547 194L61.066 188.271L66.0107 184.729H59.8994L58.0107 179Z" fill="#24A186"/>
<path d="M75.0107 183.253L75.9301 186.044H78.9067L76.4987 187.769L77.418 190.559L75.0107 188.834L72.6027 190.559L73.5221 187.769L71.1141 186.044H74.0907L75.0107 183.253ZM75.0107 179L73.1221 184.729H67.0107L71.9547 188.271L70.0661 194L75.0107 190.459L79.9547 194L78.066 188.271L83.0107 184.729H76.8994L75.0107 179Z" fill="#24A186"/>
<path d="M42.0107 165.253L42.9301 168.044H45.9067L43.4987 169.769L44.418 172.559L42.0107 170.834L39.6027 172.559L40.5221 169.769L38.1141 168.044H41.0907L42.0107 165.253ZM42.0107 161L40.1221 166.729H34.0107L38.9547 170.271L37.0661 176L42.0107 172.459L46.9547 176L45.066 170.271L50.0107 166.729H43.8994L42.0107 161Z" fill="#24A186"/>
<path d="M42.0107 183.253L42.9301 186.044H45.9067L43.4987 187.769L44.418 190.559L42.0107 188.834L39.6027 190.559L40.5221 187.769L38.1141 186.044H41.0907L42.0107 183.253ZM42.0107 179L40.1221 184.729H34.0107L38.9547 188.271L37.0661 194L42.0107 190.459L46.9547 194L45.066 188.271L50.0107 184.729H43.8994L42.0107 179Z" fill="#24A186"/>
<path d="M25.0107 130.253L25.9301 133.044H28.9067L26.4987 134.769L27.418 137.559L25.0107 135.834L22.6027 137.559L23.5221 134.769L21.1141 133.044H24.0907L25.0107 130.253ZM25.0107 126L23.1221 131.729H17.0107L21.9547 135.271L20.0661 141L25.0107 137.459L29.9547 141L28.066 135.271L33.0107 131.729H26.8994L25.0107 126Z" fill="#24A186"/>
<path d="M25.0107 148.253L25.9301 151.044H28.9067L26.4987 152.769L27.418 155.559L25.0107 153.834L22.6027 155.559L23.5221 152.769L21.1141 151.044H24.0907L25.0107 148.253ZM25.0107 144L23.1221 149.729H17.0107L21.9547 153.271L20.0661 159L25.0107 155.459L29.9547 159L28.066 153.271L33.0107 149.729H26.8994L25.0107 144Z" fill="#24A186"/>
<path d="M25.0107 165.253L25.9301 168.044H28.9067L26.4987 169.769L27.418 172.559L25.0107 170.834L22.6027 172.559L23.5221 169.769L21.1141 168.044H24.0907L25.0107 165.253ZM25.0107 161L23.1221 166.729H17.0107L21.9547 170.271L20.0661 176L25.0107 172.459L29.9547 176L28.066 170.271L33.0107 166.729H26.8994L25.0107 161Z" fill="#24A186"/>
<path d="M25.0107 183.253L25.9301 186.044H28.9067L26.4987 187.769L27.418 190.559L25.0107 188.834L22.6027 190.559L23.5221 187.769L21.1141 186.044H24.0907L25.0107 183.253ZM25.0107 179L23.1221 184.729H17.0107L21.9547 188.271L20.0661 194L25.0107 190.459L29.9547 194L28.066 188.271L33.0107 184.729H26.8994L25.0107 179Z" fill="#24A186"/>
<path d="M8.01074 95.2532L8.93007 98.0436H11.9067L9.49874 99.7687L10.418 102.559L8.01074 100.834L5.60274 102.559L6.52207 99.7687L4.11407 98.0436H7.09074L8.01074 95.2532ZM8.01074 91L6.12207 96.7292H0.0107422L4.95474 100.271L3.06607 106L8.01074 102.459L12.9547 106L11.066 100.271L16.0107 96.7292H9.89941L8.01074 91Z" fill="#24A186"/>
<path d="M8.01074 112.253L8.93007 115.044H11.9067L9.49874 116.769L10.418 119.559L8.01074 117.834L5.60274 119.559L6.52207 116.769L4.11407 115.044H7.09074L8.01074 112.253ZM8.01074 108L6.12207 113.729H0.0107422L4.95474 117.271L3.06607 123L8.01074 119.459L12.9547 123L11.066 117.271L16.0107 113.729H9.89941L8.01074 108Z" fill="#24A186"/>
<path d="M8.01074 130.253L8.93007 133.044H11.9067L9.49874 134.769L10.418 137.559L8.01074 135.834L5.60274 137.559L6.52207 134.769L4.11407 133.044H7.09074L8.01074 130.253ZM8.01074 126L6.12207 131.729H0.0107422L4.95474 135.271L3.06607 141L8.01074 137.459L12.9547 141L11.066 135.271L16.0107 131.729H9.89941L8.01074 126Z" fill="#24A186"/>
<path d="M8.01074 148.253L8.93007 151.044H11.9067L9.49874 152.769L10.418 155.559L8.01074 153.834L5.60274 155.559L6.52207 152.769L4.11407 151.044H7.09074L8.01074 148.253ZM8.01074 144L6.12207 149.729H0.0107422L4.95474 153.271L3.06607 159L8.01074 155.459L12.9547 159L11.066 153.271L16.0107 149.729H9.89941L8.01074 144Z" fill="#24A186"/>
<path d="M8.01074 165.253L8.93007 168.044H11.9067L9.49874 169.769L10.418 172.559L8.01074 170.834L5.60274 172.559L6.52207 169.769L4.11407 168.044H7.09074L8.01074 165.253ZM8.01074 161L6.12207 166.729H0.0107422L4.95474 170.271L3.06607 176L8.01074 172.459L12.9547 176L11.066 170.271L16.0107 166.729H9.89941L8.01074 161Z" fill="#24A186"/>
<path d="M8.01074 183.253L8.93007 186.044H11.9067L9.49874 187.769L10.418 190.559L8.01074 188.834L5.60274 190.559L6.52207 187.769L4.11407 186.044H7.09074L8.01074 183.253ZM8.01074 179L6.12207 184.729H0.0107422L4.95474 188.271L3.06607 194L8.01074 190.459L12.9547 194L11.066 188.271L16.0107 184.729H9.89941L8.01074 179Z" fill="#24A186"/>
<mask id="mask1" mask-type="alpha" maskUnits="userSpaceOnUse" x="17" y="53" width="9" height="15">
<path d="M17.0107 53H25.0107V68H17.0107V53Z" fill="#C4C4C4"/>
</mask>
<g mask="url(#mask1)">
<path d="M24.9782 57.2532L25.8938 60.0436H28.8583L26.4602 61.7687L27.3757 64.559L24.9782 62.834L22.58 64.559L23.4956 61.7687L21.0974 60.0436H24.0619L24.9782 57.2532ZM24.9782 53L23.0972 58.7292H17.0107L21.9346 62.2708L20.0537 68L24.9782 64.4591L29.9021 68L28.0211 62.2708L32.9456 58.7292H26.8592L24.9782 53Z" fill="#24A186"/>
</g>
<mask id="mask2" mask-type="alpha" maskUnits="userSpaceOnUse" x="34" y="91" width="9" height="15">
<path d="M34.0107 91H42.0107V106H34.0107V91Z" fill="#C4C4C4"/>
</mask>
<g mask="url(#mask2)">
<path d="M41.9782 95.2532L42.8938 98.0436H45.8583L43.4602 99.7687L44.3757 102.559L41.9782 100.834L39.58 102.559L40.4956 99.7687L38.0974 98.0436H41.0619L41.9782 95.2532ZM41.9782 91L40.0972 96.7292H34.0107L38.9346 100.271L37.0537 106L41.9782 102.459L46.9021 106L45.0211 100.271L49.9456 96.7292H43.8592L41.9782 91Z" fill="#24A186"/>
</g>
<mask id="mask3" mask-type="alpha" maskUnits="userSpaceOnUse" x="50" y="126" width="9" height="15">
<path d="M50.0107 126H58.0107V141H50.0107V126Z" fill="#C4C4C4"/>
</mask>
<g mask="url(#mask3)">
<path d="M57.9782 130.253L58.8938 133.044H61.8583L59.4602 134.769L60.3757 137.559L57.9782 135.834L55.58 137.559L56.4956 134.769L54.0974 133.044H57.0619L57.9782 130.253ZM57.9782 126L56.0972 131.729H50.0107L54.9346 135.271L53.0537 141L57.9782 137.459L62.9021 141L61.0211 135.271L65.9456 131.729H59.8592L57.9782 126Z" fill="#24A186"/>
</g>
<mask id="mask4" mask-type="alpha" maskUnits="userSpaceOnUse" x="67" y="161" width="9" height="15">
<path d="M67.0107 161H75.0107V176H67.0107V161Z" fill="#C4C4C4"/>
</mask>
<g mask="url(#mask4)">
<path d="M74.9782 165.253L75.8938 168.044H78.8583L76.4602 169.769L77.3757 172.559L74.9782 170.834L72.58 172.559L73.4956 169.769L71.0974 168.044H74.0619L74.9782 165.253ZM74.9782 161L73.0972 166.729H67.0107L71.9346 170.271L70.0537 176L74.9782 172.459L79.9021 176L78.0211 170.271L82.9456 166.729H76.8592L74.9782 161Z" fill="#24A186"/>
</g>
<mask id="mask5" mask-type="alpha" maskUnits="userSpaceOnUse" x="0" y="19" width="8" height="15">
<path d="M0 19H7.98926V34H0V19Z" fill="#C4C4C4"/>
</mask>
<g mask="url(#mask5)">
<path d="M7.95676 23.2532L8.87113 26.0436H11.8317L9.43672 27.7687L10.3511 30.559L7.95676 28.834L5.56178 30.559L6.47614 27.7687L4.08115 26.0436H7.04173L7.95676 23.2532ZM7.95676 19L6 24.5H3H0L4.91728 28.2708L3.03882 34L7.95676 30.4591L12.8741 34L10.9956 28.2708L15.9135 24.7292H9.83523L7.95676 19Z" fill="#24A186"/>
</g>
<path d="M8 38L9.5716 42.8369H14.6574L10.5429 45.8262L12.1145 50.6631L8 47.6738L3.8855 50.6631L5.4571 45.8262L1.3426 42.8369H6.4284L8 38Z" fill="#24A186"/>
<path d="M8 54L9.5716 58.8369H14.6574L10.5429 61.8262L12.1145 66.6631L8 63.6738L3.8855 66.6631L5.4571 61.8262L1.3426 58.8369H6.4284L8 54Z" fill="#24A186"/>
<path d="M8 74L9.5716 78.8369H14.6574L10.5429 81.8262L12.1145 86.6631L8 83.6738L3.8855 86.6631L5.4571 81.8262L1.3426 78.8369H6.4284L8 74Z" fill="#24A186"/>
<path d="M25 74L26.5716 78.8369H31.6574L27.5429 81.8262L29.1145 86.6631L25 83.6738L20.8855 86.6631L22.4571 81.8262L18.3426 78.8369H23.4284L25 74Z" fill="#24A186"/>
<path d="M25 92L26.5716 96.8369H31.6574L27.5429 99.8262L29.1145 104.663L25 101.674L20.8855 104.663L22.4571 99.8262L18.3426 96.8369H23.4284L25 92Z" fill="#24A186"/>
<path d="M8 92L9.5716 96.8369H14.6574L10.5429 99.8262L12.1145 104.663L8 101.674L3.8855 104.663L5.4571 99.8262L1.3426 96.8369H6.4284L8 92Z" fill="#24A186"/>
<path d="M8 109L9.5716 113.837H14.6574L10.5429 116.826L12.1145 121.663L8 118.674L3.8855 121.663L5.4571 116.826L1.3426 113.837H6.4284L8 109Z" fill="#24A186"/>
<path d="M25 109L26.5716 113.837H31.6574L27.5429 116.826L29.1145 121.663L25 118.674L20.8855 121.663L22.4571 116.826L18.3426 113.837H23.4284L25 109Z" fill="#24A186"/>
<path d="M42 109L43.5716 113.837H48.6574L44.5429 116.826L46.1145 121.663L42 118.674L37.8855 121.663L39.4571 116.826L35.3426 113.837H40.4284L42 109Z" fill="#24A186"/>
<path d="M42 127L43.5716 131.837H48.6574L44.5429 134.826L46.1145 139.663L42 136.674L37.8855 139.663L39.4571 134.826L35.3426 131.837H40.4284L42 127Z" fill="#24A186"/>
<path d="M25 127L26.5716 131.837H31.6574L27.5429 134.826L29.1145 139.663L25 136.674L20.8855 139.663L22.4571 134.826L18.3426 131.837H23.4284L25 127Z" fill="#24A186"/>
<path d="M8 127L9.5716 131.837H14.6574L10.5429 134.826L12.1145 139.663L8 136.674L3.8855 139.663L5.4571 134.826L1.3426 131.837H6.4284L8 127Z" fill="#24A186"/>
<path d="M8 145L9.5716 149.837H14.6574L10.5429 152.826L12.1145 157.663L8 154.674L3.8855 157.663L5.4571 152.826L1.3426 149.837H6.4284L8 145Z" fill="#24A186"/>
<path d="M25 145L26.5716 149.837H31.6574L27.5429 152.826L29.1145 157.663L25 154.674L20.8855 157.663L22.4571 152.826L18.3426 149.837H23.4284L25 145Z" fill="#24A186"/>
<path d="M42 145L43.5716 149.837H48.6574L44.5429 152.826L46.1145 157.663L42 154.674L37.8855 157.663L39.4571 152.826L35.3426 149.837H40.4284L42 145Z" fill="#24A186"/>
<path d="M58 145L59.5716 149.837H64.6574L60.5429 152.826L62.1145 157.663L58 154.674L53.8855 157.663L55.4571 152.826L51.3426 149.837H56.4284L58 145Z" fill="#24A186"/>
<path d="M58 162L59.5716 166.837H64.6574L60.5429 169.826L62.1145 174.663L58 171.674L53.8855 174.663L55.4571 169.826L51.3426 166.837H56.4284L58 162Z" fill="#24A186"/>
<path d="M42 162L43.5716 166.837H48.6574L44.5429 169.826L46.1145 174.663L42 171.674L37.8855 174.663L39.4571 169.826L35.3426 166.837H40.4284L42 162Z" fill="#24A186"/>
<path d="M25 162L26.5716 166.837H31.6574L27.5429 169.826L29.1145 174.663L25 171.674L20.8855 174.663L22.4571 169.826L18.3426 166.837H23.4284L25 162Z" fill="#24A186"/>
<path d="M8 162L9.5716 166.837H14.6574L10.5429 169.826L12.1145 174.663L8 171.674L3.8855 174.663L5.4571 169.826L1.3426 166.837H6.4284L8 162Z" fill="#24A186"/>
<path d="M8 180L9.5716 184.837H14.6574L10.5429 187.826L12.1145 192.663L8 189.674L3.8855 192.663L5.4571 187.826L1.3426 184.837H6.4284L8 180Z" fill="#24A186"/>
<path d="M25 180L26.5716 184.837H31.6574L27.5429 187.826L29.1145 192.663L25 189.674L20.8855 192.663L22.4571 187.826L18.3426 184.837H23.4284L25 180Z" fill="#24A186"/>
<path d="M42 180L43.5716 184.837H48.6574L44.5429 187.826L46.1145 192.663L42 189.674L37.8855 192.663L39.4571 187.826L35.3426 184.837H40.4284L42 180Z" fill="#24A186"/>
<path d="M58 180L59.5716 184.837H64.6574L60.5429 187.826L62.1145 192.663L58 189.674L53.8855 192.663L55.4571 187.826L51.3426 184.837H56.4284L58 180Z" fill="#24A186"/>
<path d="M75 180L76.5716 184.837H81.6574L77.5429 187.826L79.1145 192.663L75 189.674L70.8855 192.663L72.4571 187.826L68.3426 184.837H73.4284L75 180Z" fill="#24A186"/>
<mask id="mask6" mask-type="alpha" maskUnits="userSpaceOnUse" x="68" y="162" width="14" height="13">
<path d="M75 162L76.5716 166.837H81.6574L77.5429 169.826L79.1145 174.663L75 171.674L70.8855 174.663L72.4571 169.826L68.3426 166.837H73.4284L75 162Z" fill="#24A186"/>
</mask>
<g mask="url(#mask6)">
<rect x="66" y="161" width="9" height="15" fill="#24A186"/>
</g>
<mask id="mask7" mask-type="alpha" maskUnits="userSpaceOnUse" x="51" y="127" width="14" height="13">
<path d="M58 127L59.5716 131.837H64.6574L60.5429 134.826L62.1145 139.663L58 136.674L53.8855 139.663L55.4571 134.826L51.3426 131.837H56.4284L58 127Z" fill="#24A186"/>
</mask>
<g mask="url(#mask7)">
<rect x="49" y="126" width="9" height="15" fill="#24A186"/>
</g>
<mask id="mask8" mask-type="alpha" maskUnits="userSpaceOnUse" x="35" y="92" width="14" height="13">
<path d="M42 92L43.5716 96.8369H48.6574L44.5429 99.8262L46.1145 104.663L42 101.674L37.8855 104.663L39.4571 99.8262L35.3426 96.8369H40.4284L42 92Z" fill="#24A186"/>
</mask>
<g mask="url(#mask8)">
<rect x="33" y="91" width="9" height="15" fill="#24A186"/>
</g>
<mask id="mask9" mask-type="alpha" maskUnits="userSpaceOnUse" x="18" y="54" width="14" height="13">
<path d="M25 54L26.5716 58.8369H31.6574L27.5429 61.8262L29.1145 66.6631L25 63.6738L20.8855 66.6631L22.4571 61.8262L18.3426 58.8369H23.4284L25 54Z" fill="#24A186"/>
</mask>
<g mask="url(#mask9)">
<rect x="16" y="53" width="9" height="15" fill="#24A186"/>
</g>
</svg>
