<svg width="187" height="394" viewBox="0 0 187 394" fill="none" xmlns="http://www.w3.org/2000/svg">
<g clip-path="url(#clip0)">
<path d="M55.5091 263.448L57.3315 269.029H63.2322L58.4587 272.479L60.2812 278.059L55.5091 274.609L50.7356 278.059L52.558 272.479L47.7846 269.029H53.6853L55.5091 263.448ZM55.5091 254.941L51.7651 266.4H39.6504L49.4511 273.483L45.7071 284.941L55.5091 277.86L65.3097 284.941L61.5658 273.483L71.3678 266.4H59.253L55.5091 254.941Z" fill="#24A186"/>
<path d="M15.8587 263.448L17.6811 269.029H23.5818L18.8083 272.479L20.6308 278.059L15.8587 274.609L11.0852 278.059L12.9076 272.479L8.13419 269.029H14.0349L15.8587 263.448ZM15.8587 254.941L12.1147 266.4H0L9.80066 273.483L6.0567 284.941L15.8587 277.86L25.6593 284.941L21.9154 273.483L31.7174 266.4H19.6026L15.8587 254.941Z" fill="#24A186"/>
<path d="M171.271 263.448L173.077 269.029H178.927L174.195 272.479L176.001 278.059L171.271 274.609L166.539 278.059L168.345 272.479L163.613 269.029H169.463L171.271 263.448ZM171.271 254.941L167.559 266.4H155.55L165.265 273.483L161.554 284.941L171.271 277.86L180.986 284.941L177.275 273.483L186.991 266.4H174.982L171.271 254.941Z" fill="#CCCCCC"/>
<path d="M134.809 263.448L136.631 269.029H142.532L137.758 272.479L139.581 278.059L134.809 274.609L130.035 278.059L131.858 272.479L127.084 269.029H132.985L134.809 263.448ZM134.809 254.941L131.065 266.4H118.95L128.751 273.483L125.007 284.941L134.809 277.86L144.609 284.941L140.866 273.483L150.668 266.4H138.553L134.809 254.941Z" fill="#CCCCCC"/>
<path d="M95.1585 263.448L96.9809 269.029H102.882L98.1081 272.479L99.9306 278.059L95.1585 274.609L90.385 278.059L92.2074 272.479L87.434 269.029H93.3347L95.1585 263.448ZM95.1585 254.941L91.4145 266.4H79.2998L89.1005 273.483L85.3565 284.941L95.1585 277.86L104.959 284.941L101.215 273.483L111.017 266.4H98.9024L95.1585 254.941Z" fill="#24A186"/>
<path d="M55.5091 299.868L57.3315 305.449H63.2322L58.4587 308.899L60.2812 314.479L55.5091 311.029L50.7356 314.479L52.558 308.899L47.7846 305.449H53.6853L55.5091 299.868ZM55.5091 291.361L51.7651 302.82H39.6504L49.4511 309.903L45.7071 321.361L55.5091 314.28L65.3097 321.361L61.5658 309.903L71.3678 302.82H59.253L55.5091 291.361Z" fill="#24A186"/>
<path d="M15.8587 299.868L17.6811 305.449H23.5818L18.8083 308.899L20.6308 314.479L15.8587 311.029L11.0852 314.479L12.9076 308.899L8.13419 305.449H14.0349L15.8587 299.868ZM15.8587 291.361L12.1147 302.82H0L9.80066 309.903L6.0567 321.361L15.8587 314.28L25.6593 321.361L21.9154 309.903L31.7174 302.82H19.6026L15.8587 291.361Z" fill="#24A186"/>
<path d="M171.271 299.868L173.077 305.449H178.927L174.195 308.899L176.001 314.479L171.271 311.029L166.539 314.479L168.345 308.899L163.613 305.449H169.463L171.271 299.868ZM171.271 291.361L167.559 302.82H155.55L165.265 309.903L161.554 321.361L171.271 314.28L180.986 321.361L177.275 309.903L186.991 302.82H174.982L171.271 291.361Z" fill="#CCCCCC"/>
<path d="M134.809 299.868L136.631 305.449H142.532L137.758 308.899L139.581 314.479L134.809 311.029L130.035 314.479L131.858 308.899L127.084 305.449H132.985L134.809 299.868ZM134.809 291.361L131.065 302.82H118.95L128.751 309.903L125.007 321.361L134.809 314.28L144.609 321.361L140.866 309.903L150.668 302.82H138.553L134.809 291.361Z" fill="#24A186"/>
<path d="M95.1585 299.868L96.9809 305.449H102.882L98.1081 308.899L99.9306 314.479L95.1585 311.029L90.385 314.479L92.2074 308.899L87.434 305.449H93.3347L95.1585 299.868ZM95.1585 291.361L91.4145 302.82H79.2998L89.1005 309.903L85.3565 321.361L95.1585 314.28L104.959 321.361L101.215 309.903L111.017 302.82H98.9024L95.1585 291.361Z" fill="#24A186"/>
<path d="M55.5091 336.289L57.3315 341.869H63.2322L58.4587 345.32L60.2812 350.9L55.5091 347.45L50.7356 350.9L52.558 345.32L47.7846 341.869H53.6853L55.5091 336.289ZM55.5091 327.782L51.7651 339.241H39.6504L49.4511 346.324L45.7071 357.782L55.5091 350.701L65.3097 357.782L61.5658 346.324L71.3678 339.241H59.253L55.5091 327.782Z" fill="#24A186"/>
<path d="M15.8587 336.289L17.6811 341.869H23.5818L18.8083 345.32L20.6308 350.9L15.8587 347.45L11.0852 350.9L12.9076 345.32L8.13419 341.869H14.0349L15.8587 336.289ZM15.8587 327.782L12.1147 339.241H0L9.80066 346.324L6.0567 357.782L15.8587 350.701L25.6593 357.782L21.9154 346.324L31.7174 339.241H19.6026L15.8587 327.782Z" fill="#24A186"/>
<path d="M171.271 336.289L173.077 341.869H178.927L174.195 345.32L176.001 350.9L171.271 347.45L166.539 350.9L168.345 345.32L163.613 341.869H169.463L171.271 336.289ZM171.271 327.782L167.559 339.241H155.55L165.265 346.324L161.554 357.782L171.271 350.701L180.986 357.782L177.275 346.324L186.991 339.241H174.982L171.271 327.782Z" fill="#CCCCCC"/>
<path d="M134.809 336.289L136.631 341.869H142.532L137.758 345.32L139.581 350.9L134.809 347.45L130.035 350.9L131.858 345.32L127.084 341.869H132.985L134.809 336.289ZM134.809 327.782L131.065 339.241H118.95L128.751 346.324L125.007 357.782L134.809 350.701L144.609 357.782L140.866 346.324L150.668 339.241H138.553L134.809 327.782Z" fill="#24A186"/>
<path d="M95.1585 336.289L96.9809 341.869H102.882L98.1081 345.32L99.9306 350.9L95.1585 347.45L90.385 350.9L92.2074 345.32L87.434 341.869H93.3347L95.1585 336.289ZM95.1585 327.782L91.4145 339.241H79.2998L89.1005 346.324L85.3565 357.782L95.1585 350.701L104.959 357.782L101.215 346.324L111.017 339.241H98.9024L95.1585 327.782Z" fill="#24A186"/>
<path d="M55.5091 227.028L57.3315 232.609H63.2322L58.4587 236.059L60.2812 241.639L55.5091 238.189L50.7356 241.639L52.558 236.059L47.7846 232.609H53.6853L55.5091 227.028ZM55.5091 218.521L51.7651 229.98H39.6504L49.4511 237.063L45.7071 248.521L55.5091 241.44L65.3097 248.521L61.5658 237.063L71.3678 229.98H59.253L55.5091 218.521Z" fill="#24A186"/>
<path d="M15.8587 227.028L17.6811 232.609H23.5818L18.8083 236.059L20.6308 241.639L15.8587 238.189L11.0852 241.639L12.9076 236.059L8.13419 232.609H14.0349L15.8587 227.028ZM15.8587 218.521L12.1147 229.98H0L9.80066 237.063L6.0567 248.521L15.8587 241.44L25.6593 248.521L21.9154 237.063L31.7174 229.98H19.6026L15.8587 218.521Z" fill="#24A186"/>
<mask id="mask0" mask-type="alpha" maskUnits="userSpaceOnUse" x="119" y="254" width="16" height="31">
<path d="M119.15 254.941H134.935V284.941H119.15V254.941Z" fill="#C4C4C4"/>
</mask>
<g mask="url(#mask0)">
<path d="M134.871 263.448L136.678 269.029H142.527L137.795 272.479L139.602 278.059L134.871 274.609L130.139 278.059L131.946 272.479L127.214 269.029H133.063L134.871 263.448ZM134.871 254.941L131.16 266.4H119.15L128.866 273.483L125.154 284.941L134.871 277.86L144.587 284.941L140.875 273.483L150.592 266.4H138.583L134.871 254.941Z" fill="#24A186"/>
</g>
<mask id="mask1" mask-type="alpha" maskUnits="userSpaceOnUse" x="155" y="327" width="17" height="31">
<path d="M155.55 327.782H171.335V357.782H155.55V327.782Z" fill="#C4C4C4"/>
</mask>
<g mask="url(#mask1)">
<path d="M171.271 336.289L173.077 341.869H178.927L174.195 345.32L176.001 350.9L171.271 347.45L166.539 350.9L168.345 345.32L163.613 341.869H169.463L171.271 336.289ZM171.271 327.782L167.559 339.241H155.55L165.265 346.324L161.554 357.782L171.271 350.701L180.986 357.782L177.275 346.324L186.991 339.241H174.982L171.271 327.782Z" fill="#24A186"/>
</g>
<path d="M171.271 227.028L173.077 232.609H178.927L174.195 236.059L176.001 241.639L171.271 238.189L166.539 241.639L168.345 236.059L163.613 232.609H169.463L171.271 227.028ZM171.271 218.521L167.559 229.98H155.55L165.265 237.063L161.554 248.521L171.271 241.44L180.986 248.521L177.275 237.063L186.991 229.98H174.982L171.271 218.521Z" fill="#CCCCCC"/>
<path d="M134.809 227.028L136.631 232.609H142.532L137.758 236.059L139.581 241.639L134.809 238.189L130.035 241.639L131.858 236.059L127.084 232.609H132.985L134.809 227.028ZM134.809 218.521L131.065 229.98H118.95L128.751 237.063L125.007 248.521L134.809 241.44L144.609 248.521L140.866 237.063L150.668 229.98H138.553L134.809 218.521Z" fill="#CCCCCC"/>
<path d="M95.1585 227.028L96.9809 232.609H102.882L98.1081 236.059L99.9306 241.639L95.1585 238.189L90.385 241.639L92.2074 236.059L87.434 232.609H93.3347L95.1585 227.028ZM95.1585 218.521L91.4145 229.98H79.2998L89.1005 237.063L85.3565 248.521L95.1585 241.44L104.959 248.521L101.215 237.063L111.017 229.98H98.9024L95.1585 218.521Z" fill="#24A186"/>
<path d="M55.5091 190.608L57.3315 196.188H63.2322L58.4587 199.638L60.2812 205.219L55.5091 201.769L50.7356 205.219L52.558 199.638L47.7846 196.188H53.6853L55.5091 190.608ZM55.5091 182.101L51.7651 193.56H39.6504L49.4511 200.643L45.7071 212.101L55.5091 205.019L65.3097 212.101L61.5658 200.643L71.3678 193.56H59.253L55.5091 182.101Z" fill="#24A186"/>
<path d="M15.8587 190.608L17.6811 196.188H23.5818L18.8083 199.638L20.6308 205.219L15.8587 201.769L11.0852 205.219L12.9076 199.638L8.13419 196.188H14.0349L15.8587 190.608ZM15.8587 182.101L12.1147 193.56H0L9.80066 200.643L6.0567 212.101L15.8587 205.019L25.6593 212.101L21.9154 200.643L31.7174 193.56H19.6026L15.8587 182.101Z" fill="#24A186"/>
<path d="M171.271 190.608L173.077 196.188H178.927L174.195 199.638L176.001 205.219L171.271 201.769L166.539 205.219L168.345 199.638L163.613 196.188H169.463L171.271 190.608ZM171.271 182.101L167.559 193.56H155.55L165.265 200.643L161.554 212.101L171.271 205.019L180.986 212.101L177.275 200.643L186.991 193.56H174.982L171.271 182.101Z" fill="#CCCCCC"/>
<path d="M134.809 190.608L136.631 196.188H142.532L137.758 199.638L139.581 205.219L134.809 201.769L130.035 205.219L131.858 199.638L127.084 196.188H132.985L134.809 190.608ZM134.809 182.101L131.065 193.56H118.95L128.751 200.643L125.007 212.101L134.809 205.019L144.609 212.101L140.866 200.643L150.668 193.56H138.553L134.809 182.101Z" fill="#CCCCCC"/>
<path d="M95.1585 190.608L96.9809 196.188H102.882L98.1081 199.638L99.9306 205.219L95.1585 201.769L90.385 205.219L92.2074 199.638L87.434 196.188H93.3347L95.1585 190.608ZM95.1585 182.101L91.4145 193.56H79.2998L89.1005 200.643L85.3565 212.101L95.1585 205.019L104.959 212.101L101.215 200.643L111.017 193.56H98.9024L95.1585 182.101Z" fill="#CCCCCC"/>
<path d="M55.5091 154.187L57.3315 159.768H63.2322L58.4587 163.218L60.2812 168.799L55.5091 165.348L50.7356 168.799L52.558 163.218L47.7846 159.768H53.6853L55.5091 154.187ZM55.5091 145.681L51.7651 157.139H39.6504L49.4511 164.222L45.7071 175.681L55.5091 168.599L65.3097 175.681L61.5658 164.222L71.3678 157.139H59.253L55.5091 145.681Z" fill="#24A186"/>
<path d="M15.8587 154.187L17.6811 159.768H23.5818L18.8083 163.218L20.6308 168.799L15.8587 165.348L11.0852 168.799L12.9076 163.218L8.13419 159.768H14.0349L15.8587 154.187ZM15.8587 145.681L12.1147 157.139H0L9.80066 164.222L6.0567 175.681L15.8587 168.599L25.6593 175.681L21.9154 164.222L31.7174 157.139H19.6026L15.8587 145.681Z" fill="#24A186"/>
<mask id="mask2" mask-type="alpha" maskUnits="userSpaceOnUse" x="79" y="182" width="17" height="31">
<path d="M79.4297 182.101H95.2147V212.101H79.4297V182.101Z" fill="#C4C4C4"/>
</mask>
<g mask="url(#mask2)">
<path d="M95.1505 190.608L96.957 196.188H102.806L98.0745 199.638L99.8811 205.219L95.1505 201.769L90.4185 205.219L92.2251 199.638L87.4931 196.188H93.3426L95.1505 190.608ZM95.1505 182.101L91.4391 193.56H79.4297L89.1451 200.643L85.4337 212.101L95.1505 205.019L104.866 212.101L101.154 200.643L110.871 193.56H98.8619L95.1505 182.101Z" fill="#24A186"/>
</g>
<path d="M171.271 154.187L173.077 159.768H178.927L174.195 163.218L176.001 168.799L171.271 165.348L166.539 168.799L168.345 163.218L163.613 159.768H169.463L171.271 154.187ZM171.271 145.681L167.559 157.139H155.55L165.265 164.222L161.554 175.681L171.271 168.599L180.986 175.681L177.275 164.222L186.991 157.139H174.982L171.271 145.681Z" fill="#CCCCCC"/>
<path d="M134.809 154.187L136.631 159.768H142.532L137.758 163.218L139.581 168.799L134.809 165.348L130.035 168.799L131.858 163.218L127.084 159.768H132.985L134.809 154.187ZM134.809 145.681L131.065 157.139H118.95L128.751 164.222L125.007 175.681L134.809 168.599L144.609 175.681L140.866 164.222L150.668 157.139H138.553L134.809 145.681Z" fill="#CCCCCC"/>
<path d="M95.1585 154.187L96.9809 159.768H102.882L98.1081 163.218L99.9306 168.799L95.1585 165.348L90.385 168.799L92.2074 163.218L87.434 159.768H93.3347L95.1585 154.187ZM95.1585 145.681L91.4145 157.139H79.2998L89.1005 164.222L85.3565 175.681L95.1585 168.599L104.959 175.681L101.215 164.222L111.017 157.139H98.9024L95.1585 145.681Z" fill="#CCCCCC"/>
<path d="M55.5091 117.767L57.3315 123.348H63.2322L58.4587 126.798L60.2812 132.379L55.5091 128.929L50.7356 132.379L52.558 126.798L47.7846 123.348H53.6853L55.5091 117.767ZM55.5091 109.261L51.7651 120.719H39.6504L49.4511 127.802L45.7071 139.261L55.5091 132.179L65.3097 139.261L61.5658 127.802L71.3678 120.719H59.253L55.5091 109.261Z" fill="#CCCCCC"/>
<path d="M15.8587 117.767L17.6811 123.348H23.5818L18.8083 126.798L20.6308 132.379L15.8587 128.929L11.0852 132.379L12.9076 126.798L8.13419 123.348H14.0349L15.8587 117.767ZM15.8587 109.261L12.1147 120.719H0L9.80066 127.802L6.0567 139.261L15.8587 132.179L25.6593 139.261L21.9154 127.802L31.7174 120.719H19.6026L15.8587 109.261Z" fill="#24A186"/>
<path d="M171.271 117.767L173.077 123.348H178.927L174.195 126.798L176.001 132.379L171.271 128.929L166.539 132.379L168.345 126.798L163.613 123.348H169.463L171.271 117.767ZM171.271 109.261L167.559 120.719H155.55L165.265 127.802L161.554 139.261L171.271 132.179L180.986 139.261L177.275 127.802L186.991 120.719H174.982L171.271 109.261Z" fill="#CCCCCC"/>
<mask id="mask3" mask-type="alpha" maskUnits="userSpaceOnUse" x="39" y="109" width="17" height="31">
<path d="M39.7197 109.261H55.5047V139.261H39.7197V109.261Z" fill="#C4C4C4"/>
</mask>
<g mask="url(#mask3)">
<path d="M55.4405 117.767L57.247 123.348H63.0965L58.3645 126.798L60.1711 132.379L55.4405 128.929L50.7085 132.379L52.5151 126.798L47.7832 123.348H53.6326L55.4405 117.767ZM55.4405 109.261L51.7291 120.719H39.7197L49.4352 127.802L45.7238 139.261L55.4405 132.179L65.1559 139.261L61.4445 127.802L71.1612 120.719H59.1519L55.4405 109.261Z" fill="#24A186"/>
</g>
<path d="M134.809 117.767L136.631 123.348H142.532L137.758 126.798L139.581 132.379L134.809 128.929L130.035 132.379L131.858 126.798L127.084 123.348H132.985L134.809 117.767ZM134.809 109.261L131.065 120.719H118.95L128.751 127.802L125.007 139.261L134.809 132.179L144.609 139.261L140.866 127.802L150.668 120.719H138.553L134.809 109.261Z" fill="#CCCCCC"/>
<path d="M95.1585 117.767L96.9809 123.348H102.882L98.1081 126.798L99.9306 132.379L95.1585 128.929L90.385 132.379L92.2074 126.798L87.434 123.348H93.3347L95.1585 117.767ZM95.1585 109.261L91.4145 120.719H79.2998L89.1005 127.802L85.3565 139.261L95.1585 132.179L104.959 139.261L101.215 127.802L111.017 120.719H98.9024L95.1585 109.261Z" fill="#CCCCCC"/>
<path d="M55.5091 81.3463L57.3315 86.927H63.2322L58.4587 90.3771L60.2812 95.9578L55.5091 92.5076L50.7356 95.9578L52.558 90.3771L47.7846 86.927H53.6853L55.5091 81.3463ZM55.5091 72.8398L51.7651 84.2983H39.6504L49.4511 91.3813L45.7071 102.84L55.5091 95.7581L65.3097 102.84L61.5658 91.3813L71.3678 84.2983H59.253L55.5091 72.8398Z" fill="#CCCCCC"/>
<path d="M15.8587 81.3463L17.6811 86.927H23.5818L18.8083 90.3771L20.6308 95.9578L15.8587 92.5076L11.0852 95.9578L12.9076 90.3771L8.13419 86.927H14.0349L15.8587 81.3463ZM15.8587 72.8398L12.1147 84.2983H0L9.80066 91.3813L6.0567 102.84L15.8587 95.7581L25.6593 102.84L21.9154 91.3813L31.7174 84.2983H19.6026L15.8587 72.8398Z" fill="#24A186"/>
<path d="M171.271 81.3463L173.077 86.927H178.927L174.195 90.3771L176.001 95.9578L171.271 92.5076L166.539 95.9578L168.345 90.3771L163.613 86.927H169.463L171.271 81.3463ZM171.271 72.8398L167.559 84.2983H155.55L165.265 91.3813L161.554 102.84L171.271 95.7581L180.986 102.84L177.275 91.3813L186.991 84.2983H174.982L171.271 72.8398Z" fill="#CCCCCC"/>
<path d="M134.809 81.3463L136.631 86.927H142.532L137.758 90.3771L139.581 95.9578L134.809 92.5076L130.035 95.9578L131.858 90.3771L127.084 86.927H132.985L134.809 81.3463ZM134.809 72.8398L131.065 84.2983H118.95L128.751 91.3813L125.007 102.84L134.809 95.7581L144.609 102.84L140.866 91.3813L150.668 84.2983H138.553L134.809 72.8398Z" fill="#CCCCCC"/>
<path d="M95.1585 81.3463L96.9809 86.927H102.882L98.1081 90.3771L99.9306 95.9578L95.1585 92.5076L90.385 95.9578L92.2074 90.3771L87.434 86.927H93.3347L95.1585 81.3463ZM95.1585 72.8398L91.4145 84.2983H79.2998L89.1005 91.3813L85.3565 102.84L95.1585 95.7581L104.959 102.84L101.215 91.3813L111.017 84.2983H98.9024L95.1585 72.8398Z" fill="#CCCCCC"/>
<path d="M55.5091 44.9264L57.3315 50.5071H63.2322L58.4587 53.9572L60.2812 59.5379L55.5091 56.0877L50.7356 59.5379L52.558 53.9572L47.7846 50.5071H53.6853L55.5091 44.9264ZM55.5091 36.4199L51.7651 47.8784H39.6504L49.4511 54.9614L45.7071 66.4199L55.5091 59.3382L65.3097 66.4199L61.5658 54.9614L71.3678 47.8784H59.253L55.5091 36.4199Z" fill="#CCCCCC"/>
<path d="M15.8587 44.9264L17.6811 50.5071H23.5818L18.8083 53.9572L20.6308 59.5379L15.8587 56.0877L11.0852 59.5379L12.9076 53.9572L8.13419 50.5071H14.0349L15.8587 44.9264ZM15.8587 36.4199L12.1147 47.8784H0L9.80066 54.9614L6.0567 66.4199L15.8587 59.3382L25.6593 66.4199L21.9154 54.9614L31.7174 47.8784H19.6026L15.8587 36.4199Z" fill="#CCCCCC"/>
<path d="M171.271 44.9264L173.077 50.5071H178.927L174.195 53.9572L176.001 59.5379L171.271 56.0877L166.539 59.5379L168.345 53.9572L163.613 50.5071H169.463L171.271 44.9264ZM171.271 36.4199L167.559 47.8784H155.55L165.265 54.9614L161.554 66.4199L171.271 59.3382L180.986 66.4199L177.275 54.9614L186.991 47.8784H174.982L171.271 36.4199Z" fill="#CCCCCC"/>
<path d="M134.809 44.9264L136.631 50.5071H142.532L137.758 53.9572L139.581 59.5379L134.809 56.0877L130.035 59.5379L131.858 53.9572L127.084 50.5071H132.985L134.809 44.9264ZM134.809 36.4199L131.065 47.8784H118.95L128.751 54.9614L125.007 66.4199L134.809 59.3382L144.609 66.4199L140.866 54.9614L150.668 47.8784H138.553L134.809 36.4199Z" fill="#CCCCCC"/>
<path d="M95.1585 44.9264L96.9809 50.5071H102.882L98.1081 53.9572L99.9306 59.5379L95.1585 56.0877L90.385 59.5379L92.2074 53.9572L87.434 50.5071H93.3347L95.1585 44.9264ZM95.1585 36.4199L91.4145 47.8784H79.2998L89.1005 54.9614L85.3565 66.4199L95.1585 59.3382L104.959 66.4199L101.215 54.9614L111.017 47.8784H98.9024L95.1585 36.4199Z" fill="#CCCCCC"/>
<path d="M55.5091 8.50647L57.3315 14.0872H63.2322L58.4587 17.5373L60.2812 23.118L55.5091 19.6678L50.7356 23.118L52.558 17.5373L47.7846 14.0872H53.6853L55.5091 8.50647ZM55.5091 0L51.7651 11.4585H39.6504L49.4511 18.5415L45.7071 30L55.5091 22.9183L65.3097 30L61.5658 18.5415L71.3678 11.4585H59.253L55.5091 0Z" fill="#CCCCCC"/>
<path d="M15.8587 8.50647L17.6811 14.0872H23.5818L18.8083 17.5373L20.6308 23.118L15.8587 19.6678L11.0852 23.118L12.9076 17.5373L8.13419 14.0872H14.0349L15.8587 8.50647ZM15.8587 0L12.1147 11.4585H0L9.80066 18.5415L6.0567 30L15.8587 22.9183L25.6593 30L21.9154 18.5415L31.7174 11.4585H19.6026L15.8587 0Z" fill="#CCCCCC"/>
<path d="M171.271 8.50647L173.077 14.0872H178.927L174.195 17.5373L176.001 23.118L171.271 19.6678L166.539 23.118L168.345 17.5373L163.613 14.0872H169.463L171.271 8.50647ZM171.271 0L167.559 11.4585H155.55L165.265 18.5415L161.554 30L171.271 22.9183L180.986 30L177.275 18.5415L186.991 11.4585H174.982L171.271 0Z" fill="#CCCCCC"/>
<path d="M134.809 8.50647L136.631 14.0872H142.532L137.758 17.5373L139.581 23.118L134.809 19.6678L130.035 23.118L131.858 17.5373L127.084 14.0872H132.985L134.809 8.50647ZM134.809 0L131.065 11.4585H118.95L128.751 18.5415L125.007 30L134.809 22.9183L144.609 30L140.866 18.5415L150.668 11.4585H138.553L134.809 0Z" fill="#CCCCCC"/>
<path d="M95.1585 8.50647L96.9809 14.0872H102.882L98.1081 17.5373L99.9306 23.118L95.1585 19.6678L90.385 23.118L92.2074 17.5373L87.434 14.0872H93.3347L95.1585 8.50647ZM95.1585 0L91.4145 11.4585H79.2998L89.1005 18.5415L85.3565 30L95.1585 22.9183L104.959 30L101.215 18.5415L111.017 11.4585H98.9024L95.1585 0Z" fill="#CCCCCC"/>
<mask id="mask4" mask-type="alpha" maskUnits="userSpaceOnUse" x="0" y="36" width="16" height="31">
<path d="M0 36.4199H15.785V66.4199H0V36.4199Z" fill="#C4C4C4"/>
</mask>
<g mask="url(#mask4)">
<path d="M15.7208 44.9264L17.5273 50.5071H23.3768L18.6448 53.9572L20.4514 59.5379L15.7208 56.0877L10.9888 59.5379L12.7954 53.9572L8.06345 50.5071H13.9129L15.7208 44.9264ZM15.7208 36.4199L12.0094 47.8784H0L9.71544 54.9614L6.00403 66.4199L15.7208 59.3382L25.4362 66.4199L21.7248 54.9614L31.4415 47.8784H19.4322L15.7208 36.4199Z" fill="#24A186"/>
</g>
<path d="M54.5331 372.506L56.3238 378.087H62.122L57.4315 381.537L59.2222 387.118L54.5331 383.668L49.8426 387.118L51.6334 381.537L46.9429 378.087H52.7411L54.5331 372.506ZM54.5331 364L50.8542 375.458H38.9502L48.5804 382.542L44.9016 394L54.5331 386.918L64.1633 394L60.4845 382.542L70.1159 375.458H58.212L54.5331 364Z" fill="#24A186"/>
<path d="M15.5829 372.506L17.3736 378.087H23.1718L18.4813 381.537L20.272 387.118L15.5829 383.668L10.8924 387.118L12.6832 381.537L7.99272 378.087H13.7909L15.5829 372.506ZM15.5829 364L11.904 375.458H0L9.63022 382.542L5.95136 394L15.5829 386.918L25.2131 394L21.5343 382.542L31.1657 375.458H19.2618L15.5829 364Z" fill="#24A186"/>
<path d="M16 366L19.3677 376.365H30.2658L21.4491 382.771L24.8168 393.135L16 386.729L7.18322 393.135L10.5509 382.771L1.73415 376.365H12.6323L16 366Z" fill="#24A186"/>
<path d="M55 366L58.3677 376.365H69.2658L60.4491 382.771L63.8168 393.135L55 386.729L46.1832 393.135L49.5509 382.771L40.7342 376.365H51.6323L55 366Z" fill="#24A186"/>
<path d="M93 366L96.3677 376.365H107.266L98.4491 382.771L101.817 393.135L93 386.729L84.1832 393.135L87.5509 382.771L78.7342 376.365H89.6323L93 366Z" fill="#24A186"/>
<path d="M132 365L135.368 375.365H146.266L137.449 381.771L140.817 392.135L132 385.729L123.183 392.135L126.551 381.771L117.734 375.365H128.632L132 365Z" fill="#24A186"/>
<path d="M171 365L174.368 375.365H185.266L176.449 381.771L179.817 392.135L171 385.729L162.183 392.135L165.551 381.771L156.734 375.365H167.632L171 365Z" fill="#24A186"/>
<path d="M16 329L19.3677 339.365H30.2658L21.4491 345.771L24.8168 356.135L16 349.729L7.18322 356.135L10.5509 345.771L1.73415 339.365H12.6323L16 329Z" fill="#24A186"/>
<path d="M56 329L59.3677 339.365H70.2658L61.4491 345.771L64.8168 356.135L56 349.729L47.1832 356.135L50.5509 345.771L41.7342 339.365H52.6323L56 329Z" fill="#24A186"/>
<path d="M95 330L98.3677 340.365H109.266L100.449 346.771L103.817 357.135L95 350.729L86.1832 357.135L89.5509 346.771L80.7342 340.365H91.6323L95 330Z" fill="#24A186"/>
<path d="M135 329L138.368 339.365H149.266L140.449 345.771L143.817 356.135L135 349.729L126.183 356.135L129.551 345.771L120.734 339.365H131.632L135 329Z" fill="#24A186"/>
<path d="M95 293L98.3677 303.365H109.266L100.449 309.771L103.817 320.135L95 313.729L86.1832 320.135L89.5509 309.771L80.7342 303.365H91.6323L95 293Z" fill="#24A186"/>
<path d="M135 293L138.368 303.365H149.266L140.449 309.771L143.817 320.135L135 313.729L126.183 320.135L129.551 309.771L120.734 303.365H131.632L135 293Z" fill="#24A186"/>
<path d="M56 293L59.3677 303.365H70.2658L61.4491 309.771L64.8168 320.135L56 313.729L47.1832 320.135L50.5509 309.771L41.7342 303.365H52.6323L56 293Z" fill="#24A186"/>
<path d="M16 293L19.3677 303.365H30.2658L21.4491 309.771L24.8168 320.135L16 313.729L7.18322 320.135L10.5509 309.771L1.73415 303.365H12.6323L16 293Z" fill="#24A186"/>
<path d="M95 256L98.3677 266.365H109.266L100.449 272.771L103.817 283.135L95 276.729L86.1832 283.135L89.5509 272.771L80.7342 266.365H91.6323L95 256Z" fill="#24A186"/>
<path d="M55 257L58.3677 267.365H69.2658L60.4491 273.771L63.8168 284.135L55 277.729L46.1832 284.135L49.5509 273.771L40.7342 267.365H51.6323L55 257Z" fill="#24A186"/>
<path d="M16 257L19.3677 267.365H30.2658L21.4491 273.771L24.8168 284.135L16 277.729L7.18322 284.135L10.5509 273.771L1.73415 267.365H12.6323L16 257Z" fill="#24A186"/>
<path d="M95 220L98.3677 230.365H109.266L100.449 236.771L103.817 247.135L95 240.729L86.1832 247.135L89.5509 236.771L80.7342 230.365H91.6323L95 220Z" fill="#24A186"/>
<path d="M55 220L58.3677 230.365H69.2658L60.4491 236.771L63.8168 247.135L55 240.729L46.1832 247.135L49.5509 236.771L40.7342 230.365H51.6323L55 220Z" fill="#24A186"/>
<path d="M16 220L19.3677 230.365H30.2658L21.4491 236.771L24.8168 247.135L16 240.729L7.18322 247.135L10.5509 236.771L1.73415 230.365H12.6323L16 220Z" fill="#24A186"/>
<path d="M56 184L59.3677 194.365H70.2658L61.4491 200.771L64.8168 211.135L56 204.729L47.1832 211.135L50.5509 200.771L41.7342 194.365H52.6323L56 184Z" fill="#24A186"/>
<path d="M16 184L19.3677 194.365H30.2658L21.4491 200.771L24.8168 211.135L16 204.729L7.18322 211.135L10.5509 200.771L1.73415 194.365H12.6323L16 184Z" fill="#24A186"/>
<path d="M56 147L59.3677 157.365H70.2658L61.4491 163.771L64.8168 174.135L56 167.729L47.1832 174.135L50.5509 163.771L41.7342 157.365H52.6323L56 147Z" fill="#24A186"/>
<path d="M16 147L19.3677 157.365H30.2658L21.4491 163.771L24.8168 174.135L16 167.729L7.18322 174.135L10.5509 163.771L1.73415 157.365H12.6323L16 147Z" fill="#24A186"/>
<path d="M16 111L19.3677 121.365H30.2658L21.4491 127.771L24.8168 138.135L16 131.729L7.18322 138.135L10.5509 127.771L1.73415 121.365H12.6323L16 111Z" fill="#24A186"/>
<path d="M16 74L19.3677 84.3647H30.2658L21.4491 90.7705L24.8168 101.135L16 94.7295L7.18322 101.135L10.5509 90.7705L1.73415 84.3647H12.6323L16 74Z" fill="#24A186"/>
<path d="M171.413 372.506L173.204 378.087H179.002L174.311 381.537L176.102 387.118L171.413 383.668L166.722 387.118L168.513 381.537L163.823 378.087H169.621L171.413 372.506ZM171.413 364L167.734 375.458H155.83L165.46 382.542L161.781 394L171.413 386.918L181.043 394L177.364 382.542L186.996 375.458H175.092L171.413 364Z" fill="#24A186"/>
<path d="M132.443 372.506L134.234 378.087H140.032L135.342 381.537L137.132 387.118L132.443 383.668L127.753 387.118L129.544 381.537L124.853 378.087H130.651L132.443 372.506ZM132.443 364L128.764 375.458H116.86L126.491 382.542L122.812 394L132.443 386.918L142.073 394L138.395 382.542L148.026 375.458H136.122L132.443 364Z" fill="#24A186"/>
<path d="M93.4931 372.506L95.2838 378.087H101.082L96.3915 381.537L98.1822 387.118L93.4931 383.668L88.8026 387.118L90.5934 381.537L85.9029 378.087H91.7011L93.4931 372.506ZM93.4931 364L89.8142 375.458H77.9102L87.5404 382.542L83.8615 394L93.4931 386.918L103.123 394L99.4445 382.542L109.076 375.458H97.172L93.4931 364Z" fill="#24A186"/>
<mask id="mask5" mask-type="alpha" maskUnits="userSpaceOnUse" x="1" y="37" width="15" height="29">
<path d="M1 37.9004H15.785V65.9999H1V37.9004Z" fill="#C4C4C4"/>
</mask>
<g mask="url(#mask5)">
<path d="M15.9864 37.9004L19.351 48.2557H30.2393L21.4305 54.6557L24.7952 65.011L15.9864 58.6111L7.17761 65.011L10.5423 54.6557L1.73349 48.2557H12.6217L15.9864 37.9004Z" fill="#24A186"/>
</g>
<mask id="mask6" mask-type="alpha" maskUnits="userSpaceOnUse" x="80" y="183" width="16" height="29">
<path d="M80 183.1H95.2064V212H80V183.1Z" fill="#C4C4C4"/>
</mask>
<g mask="url(#mask6)">
<path d="M95.4135 183.1L98.8741 193.75H110.073L101.013 200.332L104.473 210.983L95.4135 204.401L86.3537 210.983L89.8142 200.332L80.7544 193.75H91.953L95.4135 183.1Z" fill="#24A186"/>
</g>
<mask id="mask7" mask-type="alpha" maskUnits="userSpaceOnUse" x="40" y="110" width="16" height="29">
<path d="M40 110H55.2064V138.9H40V110Z" fill="#C4C4C4"/>
</mask>
<g mask="url(#mask7)">
<path d="M55.4135 110L58.8741 120.65H70.0727L61.0128 127.233L64.4734 137.883L55.4135 131.301L46.3537 137.883L49.8142 127.233L40.7544 120.65H51.953L55.4135 110Z" fill="#24A186"/>
</g>
<mask id="mask8" mask-type="alpha" maskUnits="userSpaceOnUse" x="120" y="257" width="15" height="29">
<path d="M120 257H134.785V285.099H120V257Z" fill="#C4C4C4"/>
</mask>
<g mask="url(#mask8)">
<path d="M134.986 257L138.351 267.355H149.239L140.431 273.755L143.795 284.111L134.986 277.711L126.178 284.111L129.542 273.755L120.733 267.355H131.622L134.986 257Z" fill="#24A186"/>
</g>
<mask id="mask9" mask-type="alpha" maskUnits="userSpaceOnUse" x="156" y="329" width="16" height="29">
<path d="M156 329H171.259V358H156V329Z" fill="#C4C4C4"/>
</mask>
<g mask="url(#mask9)">
<path d="M171.467 329L174.939 339.687H186.176L177.085 346.292L180.558 356.979L171.467 350.374L162.376 356.979L165.848 346.292L156.757 339.687H167.994L171.467 329Z" fill="#24A186"/>
</g>
</g>
<defs>
<clipPath id="clip0">
<rect width="187" height="394" fill="white"/>
</clipPath>
</defs>
</svg>
