<svg width="57" height="42" viewBox="0 0 57 42" version="1.1" xmlns="http://www.w3.org/2000/svg" xmlns:xlink="http://www.w3.org/1999/xlink">
<title>truck-icon</title>
<desc>Created using Figma</desc>
<g id="Canvas" transform="matrix(3 0 0 3 762 1365)">
<g id="truck-icon">
<g id="Vector">
<use xlink:href="#path0_fill" transform="translate(-254 -455)" fill="#24A186"/>
</g>
</g>
</g>
<defs>
<path id="path0_fill" fill-rule="evenodd" d="M 3.88889 11.6667L 3.11111 11.6667C 2.68178 11.6667 2.33333 11.3182 2.33333 10.8889L 2.33333 9.33333L 11.6667 9.33333L 11.6667 2.33333L 15.2966 2.33333C 16.1653 2.33333 16.541 2.78133 16.8023 3.19433C 17.2643 3.92544 17.997 5.08589 18.4427 5.82167C 18.5889 6.06433 18.6667 6.34278 18.6667 6.62667L 18.6667 10.1111C 18.6667 10.983 18.1004 11.6667 17.1111 11.6667L 16.3333 11.6667C 16.3333 12.9547 15.288 14 14 14C 12.712 14 11.6667 12.9547 11.6667 11.6667L 8.55556 11.6667C 8.55556 12.9547 7.51022 14 6.22222 14C 4.93422 14 3.88889 12.9547 3.88889 11.6667ZM 6.22222 10.7333C 6.73711 10.7333 7.15556 11.1518 7.15556 11.6667C 7.15556 12.1816 6.73711 12.6 6.22222 12.6C 5.70733 12.6 5.28889 12.1816 5.28889 11.6667C 5.28889 11.1518 5.70733 10.7333 6.22222 10.7333ZM 14 10.7333C 14.5149 10.7333 14.9333 11.1518 14.9333 11.6667C 14.9333 12.1816 14.5149 12.6 14 12.6C 13.4851 12.6 13.0667 12.1816 13.0667 11.6667C 13.0667 11.1518 13.4851 10.7333 14 10.7333ZM 6.22222 3.88889L 0 3.88889L 0 2.33333L 6.22222 2.33333L 6.22222 1.55556L 2.33333 1.55556L 2.33333 0.777778C 2.33333 0.348444 2.68178 0 3.11111 0L 10.1111 0C 10.5404 0 10.8889 0.348444 10.8889 0.777778L 10.8889 8.55556L 2.33333 8.55556L 2.33333 6.22222L 0.777778 6.22222L 0.777778 4.66667L 6.22222 4.66667L 6.22222 3.88889ZM 13.2222 3.88889L 13.2222 6.22222L 16.8894 6.22222L 15.7796 4.28089C 15.6411 4.03822 15.3837 3.88889 15.1044 3.88889L 13.2222 3.88889Z"/>
</defs>
</svg>
