<svg width="100" height="100" viewBox="0 0 100 100" version="1.1" xmlns="http://www.w3.org/2000/svg" xmlns:xlink="http://www.w3.org/1999/xlink">
<title>youtube-icon</title>
<desc>Created using Figma</desc>
<g id="Canvas" transform="translate(350 250)">
<g id="youtube-icon">
<use xlink:href="#path0_fill" transform="translate(-350 -250)" fill="#FFFFFF"/>
</g>
</g>
<defs>
<path id="path0_fill" d="M 50 0C 22.3875 0 0 22.3875 0 50C 0 77.6125 22.3875 100 50 100C 77.6125 100 100 77.6125 100 50C 100 22.3875 77.6125 0 50 0ZM 68.5042 70.3833C 59.7458 70.9833 40.2375 70.9833 31.4917 70.3833C 22.0083 69.7333 20.9042 65.0917 20.8333 50C 20.9042 34.8792 22.0208 30.2667 31.4917 29.6167C 40.2375 29.0167 59.75 29.0167 68.5042 29.6167C 77.9917 30.2667 79.0917 34.9083 79.1667 50C 79.0917 65.1208 77.9792 69.7333 68.5042 70.3833ZM 41.6667 40.2417L 62.1542 49.9833L 41.6667 59.7583L 41.6667 40.2417L 41.6667 40.2417Z"/>
</defs>
</svg>
